<svg version="1.1" xmlns="http://www.w3.org/2000/svg" xmlns:xlink="http://www.w3.org/1999/xlink" width="34" height="34"><defs/><g><path fill="rgb(149,225,211)" stroke="none" paint-order="stroke fill markers" fill-rule="evenodd" d=" M 31.73963165283203 11.502825856208801 C 30.156341552734375 7.806619763374329 27.19312286376953 4.84309983253479 23.49736785888672 3.2600687742233276 C 24.496780395507812 2.473310947418213 25.754714965820312 1.9999573230743408 27.12560272216797 1.9999573230743408 C 30.369888305664062 1.9999573230743408 32.999969482421875 4.629682898521423 32.999969482421875 7.873982787132263 C 32.999969482421875 9.244956254959106 32.526641845703125 10.50265109539032 31.73963165283203 11.502825856208801 Z M 31.49999237060547 17.999732732772827 C 31.49999237060547 21.851961255073547 29.987770080566406 25.34290647506714 27.5374755859375 27.93985676765442 C 27.5374755859375 27.93985676765442 29.565597534179688 29.967695236206055 29.565597534179688 29.967695236206055 C 29.833961486816406 30.23654317855835 30.000015258789062 30.60719084739685 30.000015258789062 31.016655325889587 C 30.000015258789062 31.835735321044922 29.335914611816406 32.499699115753174 28.516860961914062 32.499699115753174 C 28.107276916503906 32.499699115753174 27.736488342285156 32.33401024341583 27.468124389648438 32.06516230106354 C 27.468124389648438 32.06516230106354 25.289627075195312 29.886587738990784 25.289627075195312 29.886587738990784 C 22.939125061035156 31.529278874397278 20.084854125976562 32.499699115753174 16.999984741210938 32.499699115753174 C 13.921180725097656 32.499699115753174 11.071830749511719 31.53350794315338 8.723960876464844 29.89670729637146 C 8.723960876464844 29.89670729637146 6.5606842041015625 32.06032907962799 6.5606842041015625 32.06032907962799 C 6.289115905761719 32.33159363269806 5.914207458496094 32.499699115753174 5.499931335449219 32.499699115753174 C 4.671607971191406 32.499699115753174 3.9999542236328125 31.827881336212158 3.9999542236328125 30.99943697452545 C 3.9999542236328125 30.58574342727661 4.167839050292969 30.210262537002563 4.439292907714844 29.938997983932495 C 4.439292907714844 29.938997983932495 6.451164245605469 27.92747163772583 6.451164245605469 27.92747163772583 C 4.0077362060546875 25.331578612327576 2.4999771118164062 21.84531557559967 2.4999771118164062 17.999732732772827 C 2.4999771118164062 9.99184000492096 8.991867065429688 3.4996153116226196 16.999984741210938 3.4996153116226196 C 25.008102416992188 3.4996153116226196 31.49999237060547 9.99184000492096 31.49999237060547 17.999732732772827 Z M 16.999984741210938 6.499535441398621 C 10.648628234863281 6.499535441398621 5.499931335449219 11.64812457561493 5.499931335449219 17.999732732772827 C 5.499931335449219 24.351189851760864 10.648628234863281 29.499778985977173 16.999984741210938 29.499778985977173 C 23.351226806640625 29.499778985977173 28.499923706054688 24.351189851760864 28.499923706054688 17.999732732772827 C 28.499923706054688 11.64812457561493 23.351226806640625 6.499535441398621 16.999984741210938 6.499535441398621 Z M 23.00000762939453 19.49984383583069 C 23.00000762939453 19.49984383583069 16.999984741210938 19.49984383583069 16.999984741210938 19.49984383583069 C 16.171546936035156 19.49984383583069 15.500007629394531 18.828177094459534 15.500007629394531 17.999732732772827 C 15.500007629394531 17.999732732772827 15.500007629394531 9.999542951583862 15.500007629394531 9.999542951583862 C 15.500007629394531 9.171551704406738 16.171546936035156 8.499884963035583 16.999984741210938 8.499884963035583 C 17.82842254638672 8.499884963035583 18.499961853027344 9.171551704406738 18.499961853027344 9.999542951583862 C 18.499961853027344 9.999542951583862 18.499961853027344 16.499470591545105 18.499961853027344 16.499470591545105 C 18.499961853027344 16.499470591545105 23.00000762939453 16.499470591545105 23.00000762939453 16.499470591545105 C 23.828445434570312 16.499470591545105 24.499984741210938 17.17113733291626 24.499984741210938 17.999732732772827 C 24.499984741210938 18.828177094459534 23.828445434570312 19.49984383583069 23.00000762939453 19.49984383583069 Z M 2.2872314453125 11.705368041992188 C 1.4833984375 10.684954166412354 1 9.399921417236328 1 7.999797582626343 C 1 4.685718059539795 3.6862716674804688 1.9999573230743408 6.999908447265625 1.9999573230743408 C 8.400093078613281 1.9999573230743408 9.685035705566406 2.483430504798889 10.705848693847656 3.2868025302886963 C 6.930900573730469 4.9039682149887085 3.9042816162109375 7.930622100830078 2.2872314453125 11.705368041992188 Z"/></g></svg>