<svg version="1.1" xmlns="http://www.w3.org/2000/svg" xmlns:xlink="http://www.w3.org/1999/xlink" width="35" height="34"><defs/><g><path fill="rgb(149,225,211)" stroke="none" paint-order="stroke fill markers" fill-rule="evenodd" d=" M 33.06451416015625 26.889341115951538 C 33.06451416015625 26.889341115951538 18.59368896484375 32.877249360084534 18.59368896484375 32.877249360084534 C 18.41161346435547 32.95578920841217 18.21088409423828 32.999892354011536 17.999969482421875 32.999892354011536 C 17.78905487060547 32.999892354011536 17.58832550048828 32.95578920841217 17.40625 32.877249360084534 C 17.40625 32.877249360084534 2.9353103637695312 26.889341115951538 2.9353103637695312 26.889341115951538 C 2.3867950439453125 26.66640877723694 1.9999847412109375 26.128108739852905 1.9999847412109375 25.499940991401672 C 1.9999847412109375 25.499940991401672 1.9999847412109375 2.49969744682312 1.9999847412109375 2.49969744682312 C 1.9999847412109375 1.6711020469665527 2.6715240478515625 1.0000394582748413 3.4999618530273438 1.0000394582748413 C 3.7032089233398438 1.0000394582748413 3.896728515625 1.0405176877975464 4.07342529296875 1.1139222383499146 C 4.07342529296875 1.1139222383499146 4.073539733886719 1.1139222383499146 4.073539733886719 1.1139222383499146 C 4.073539733886719 1.1139222383499146 4.0759429931640625 1.1149795055389404 4.0759429931640625 1.1149795055389404 C 4.080406188964844 1.1161878108978271 4.084869384765625 1.1186044216156006 4.089332580566406 1.1204168796539307 C 4.089332580566406 1.1204168796539307 17.999969482421875 6.876481533050537 17.999969482421875 6.876481533050537 C 17.999969482421875 6.876481533050537 31.910606384277344 1.1204168796539307 31.910606384277344 1.1204168796539307 C 31.914955139160156 1.1186044216156006 31.919532775878906 1.1161878108978271 31.923995971679688 1.1149795055389404 C 31.923995971679688 1.1149795055389404 31.926513671875 1.1139222383499146 31.926513671875 1.1139222383499146 C 31.926513671875 1.1139222383499146 31.926513671875 1.1139222383499146 31.926513671875 1.1139222383499146 C 32.10321044921875 1.0405176877975464 32.296730041503906 1.0000394582748413 32.499977111816406 1.0000394582748413 C 33.32841491699219 1.0000394582748413 33.99995422363281 1.6711020469665527 33.99995422363281 2.49969744682312 C 33.99995422363281 2.49969744682312 33.99995422363281 25.499940991401672 33.99995422363281 25.499940991401672 C 33.99995422363281 26.128108739852905 33.61314392089844 26.66640877723694 33.06451416015625 26.889341115951538 Z M 16.49999237060547 9.50258219242096 C 16.49999237060547 9.50258219242096 4.99993896484375 4.7438225746154785 4.99993896484375 4.7438225746154785 C 4.99993896484375 4.7438225746154785 4.99993896484375 24.496745467185974 4.99993896484375 24.496745467185974 C 4.99993896484375 24.496745467185974 16.49999237060547 29.255656123161316 16.49999237060547 29.255656123161316 C 16.49999237060547 29.255656123161316 16.49999237060547 9.50258219242096 16.49999237060547 9.50258219242096 Z M 31 4.7438225746154785 C 31 4.7438225746154785 19.49994659423828 9.50258219242096 19.49994659423828 9.50258219242096 C 19.49994659423828 9.50258219242096 19.49994659423828 29.255656123161316 19.49994659423828 29.255656123161316 C 19.49994659423828 29.255656123161316 31 24.496745467185974 31 24.496745467185974 C 31 24.496745467185974 31 4.7438225746154785 31 4.7438225746154785 Z M 21.879287719726562 11.634032845497131 C 21.879287719726562 11.634032845497131 27.379318237304688 9.134200096130371 27.379318237304688 9.134200096130371 C 27.379318237304688 9.134200096130371 27.379318237304688 9.134200096130371 27.379318237304688 9.134200096130371 C 27.56848907470703 9.04780626296997 27.778488159179688 8.999625086784363 27.99993133544922 8.999625086784363 C 28.828369140625 8.999625086784363 29.500022888183594 9.671291828155518 29.500022888183594 10.499736189842224 C 29.500022888183594 11.106607556343079 29.139305114746094 11.629350662231445 28.62065887451172 11.865272283554077 C 28.62065887451172 11.865272283554077 28.62065887451172 11.865272283554077 28.62065887451172 11.865272283554077 C 28.62065887451172 11.865272283554077 23.120628356933594 14.365105032920837 23.120628356933594 14.365105032920837 C 23.120628356933594 14.365105032920837 23.120628356933594 14.365105032920837 23.120628356933594 14.365105032920837 C 22.93145751953125 14.451649904251099 22.721458435058594 14.499831080436707 22.500015258789062 14.499831080436707 C 21.67157745361328 14.499831080436707 20.999923706054688 13.828164339065552 20.999923706054688 12.999568939208984 C 20.999923706054688 12.39284861087799 21.360641479492188 11.870105504989624 21.879287719726562 11.634032845497131 Z M 21.879287719726562 17.134389877319336 C 21.879287719726562 17.134389877319336 21.879287719726562 17.134389877319336 21.879287719726562 17.134389877319336 C 21.879287719726562 17.134389877319336 27.379318237304688 14.633952975273132 27.379318237304688 14.633952975273132 C 27.379318237304688 14.633952975273132 27.379318237304688 14.633952975273132 27.379318237304688 14.633952975273132 C 27.56848907470703 14.548163294792175 27.778488159179688 14.499831080436707 27.99993133544922 14.499831080436707 C 28.828369140625 14.499831080436707 29.500022888183594 15.171044707298279 29.500022888183594 15.999489068984985 C 29.500022888183594 16.606964588165283 29.139305114746094 17.129103541374207 28.62065887451172 17.36502516269684 C 28.62065887451172 17.36502516269684 23.120628356933594 19.865462064743042 23.120628356933594 19.865462064743042 C 23.120628356933594 19.865462064743042 23.120628356933594 19.8648579120636 23.120628356933594 19.8648579120636 C 22.93145751953125 19.951251745224 22.721458435058594 19.999583959579468 22.500015258789062 19.999583959579468 C 21.67157745361328 19.999583959579468 20.999923706054688 19.327917218208313 20.999923706054688 18.49992597103119 C 20.999923706054688 17.892601490020752 21.360641479492188 17.37046253681183 21.879287719726562 17.134389877319336 Z M 21.879287719726562 22.634142756462097 C 21.879287719726562 22.634142756462097 21.879287719726562 22.634142756462097 21.879287719726562 22.634142756462097 C 21.879287719726562 22.634142756462097 27.379318237304688 20.134310007095337 27.379318237304688 20.134310007095337 C 27.379318237304688 20.134310007095337 27.379318237304688 20.134310007095337 27.379318237304688 20.134310007095337 C 27.56848907470703 20.047916173934937 27.778488159179688 19.999583959579468 27.99993133544922 19.999583959579468 C 28.828369140625 19.999583959579468 29.500022888183594 20.671401739120483 29.500022888183594 21.49984610080719 C 29.500022888183594 22.106566429138184 29.139305114746094 22.62930953502655 28.62065887451172 22.865382194519043 C 28.62065887451172 22.865382194519043 28.62065887451172 22.865382194519043 28.62065887451172 22.865382194519043 C 28.62065887451172 22.865382194519043 23.120628356933594 25.365214943885803 23.120628356933594 25.365214943885803 C 23.120628356933594 25.365214943885803 23.120628356933594 25.365214943885803 23.120628356933594 25.365214943885803 C 22.93145751953125 25.451608777046204 22.721458435058594 25.499940991401672 22.500015258789062 25.499940991401672 C 21.67157745361328 25.499940991401672 20.999923706054688 24.828123211860657 20.999923706054688 23.99967885017395 C 20.999923706054688 23.392958521842957 21.360641479492188 22.87021541595459 21.879287719726562 22.634142756462097 Z M 8.000007629394531 8.999625086784363 C 8.221450805664062 8.999625086784363 8.431449890136719 9.04780626296997 8.620620727539062 9.134200096130371 C 8.620620727539062 9.134200096130371 8.620620727539062 9.134200096130371 8.620620727539062 9.134200096130371 C 8.620620727539062 9.134200096130371 14.120651245117188 11.634032845497131 14.120651245117188 11.634032845497131 C 14.120651245117188 11.634032845497131 14.120651245117188 11.634032845497131 14.120651245117188 11.634032845497131 C 14.639297485351562 11.870105504989624 15.000015258789062 12.39284861087799 15.000015258789062 12.999568939208984 C 15.000015258789062 13.828164339065552 14.328361511230469 14.499831080436707 13.499923706054688 14.499831080436707 C 13.278480529785156 14.499831080436707 13.0684814453125 14.451649904251099 12.879310607910156 14.365105032920837 C 12.879310607910156 14.365105032920837 12.879310607910156 14.365105032920837 12.879310607910156 14.365105032920837 C 12.879310607910156 14.365105032920837 7.379280090332031 11.865272283554077 7.379280090332031 11.865272283554077 C 7.379280090332031 11.865272283554077 7.379280090332031 11.865272283554077 7.379280090332031 11.865272283554077 C 6.860633850097656 11.629350662231445 6.499916076660156 11.106607556343079 6.499916076660156 10.499736189842224 C 6.499916076660156 9.671291828155518 7.17156982421875 8.999625086784363 8.000007629394531 8.999625086784363 Z M 8.000007629394531 14.499831080436707 C 8.221450805664062 14.499831080436707 8.431449890136719 14.548163294792175 8.620620727539062 14.633952975273132 C 8.620620727539062 14.633952975273132 8.620620727539062 14.633952975273132 8.620620727539062 14.633952975273132 C 8.620620727539062 14.633952975273132 14.120651245117188 17.134389877319336 14.120651245117188 17.134389877319336 C 14.120651245117188 17.134389877319336 14.120651245117188 17.134389877319336 14.120651245117188 17.134389877319336 C 14.639297485351562 17.37046253681183 15.000015258789062 17.892601490020752 15.000015258789062 18.49992597103119 C 15.000015258789062 19.327917218208313 14.328361511230469 19.999583959579468 13.499923706054688 19.999583959579468 C 13.278480529785156 19.999583959579468 13.0684814453125 19.951251745224 12.879310607910156 19.8648579120636 C 12.879310607910156 19.8648579120636 12.879310607910156 19.865462064743042 12.879310607910156 19.865462064743042 C 12.879310607910156 19.865462064743042 7.379280090332031 17.36502516269684 7.379280090332031 17.36502516269684 C 7.379280090332031 17.36502516269684 7.379280090332031 17.36502516269684 7.379280090332031 17.36502516269684 C 6.860633850097656 17.129103541374207 6.499916076660156 16.606964588165283 6.499916076660156 15.999489068984985 C 6.499916076660156 15.171044707298279 7.17156982421875 14.499831080436707 8.000007629394531 14.499831080436707 Z M 8.000007629394531 19.999583959579468 C 8.221450805664062 19.999583959579468 8.431449890136719 20.047916173934937 8.620620727539062 20.134310007095337 C 8.620620727539062 20.134310007095337 8.620620727539062 20.134310007095337 8.620620727539062 20.134310007095337 C 8.620620727539062 20.134310007095337 14.120651245117188 22.634142756462097 14.120651245117188 22.634142756462097 C 14.120651245117188 22.634142756462097 14.120651245117188 22.634142756462097 14.120651245117188 22.634142756462097 C 14.639297485351562 22.87021541595459 15.000015258789062 23.392958521842957 15.000015258789062 23.99967885017395 C 15.000015258789062 24.828123211860657 14.328361511230469 25.499940991401672 13.499923706054688 25.499940991401672 C 13.278480529785156 25.499940991401672 13.0684814453125 25.451608777046204 12.879310607910156 25.365214943885803 C 12.879310607910156 25.365214943885803 12.879310607910156 25.365214943885803 12.879310607910156 25.365214943885803 C 12.879310607910156 25.365214943885803 7.379280090332031 22.865382194519043 7.379280090332031 22.865382194519043 C 7.379280090332031 22.865382194519043 7.379280090332031 22.865382194519043 7.379280090332031 22.865382194519043 C 6.860633850097656 22.62930953502655 6.499916076660156 22.106566429138184 6.499916076660156 21.49984610080719 C 6.499916076660156 20.671401739120483 7.17156982421875 19.999583959579468 8.000007629394531 19.999583959579468 Z"/></g></svg>