<svg version="1.1" xmlns="http://www.w3.org/2000/svg" xmlns:xlink="http://www.w3.org/1999/xlink" width="15" height="29"><defs/><g><path stroke="none" paint-order="stroke fill markers" fill-rule="evenodd" d=" M 13.08929443359375 2.1988495588302612 C 13.08929443359375 3.6753987073898315 13.08929443359375 6.319926023483276 13.08929443359375 6.319926023483276 C 13.08929443359375 6.319926023483276 10.051689147949219 6.017245531082153 9.291000366210938 7.181296706199646 C 8.8751220703125 7.817318439483643 9.121971130371094 9.680525302886963 9.085121154785156 11.018572449684143 C 10.411148071289062 11.018572449684143 11.788444519042969 11.018572449684143 13.114356994628906 11.018572449684143 C 12.773551940917969 12.583176851272583 12.529678344726562 13.643011689186096 12.279281616210938 14.997219920158386 C 11.131782531738281 14.997219920158386 9.062576293945312 14.997219920158386 9.062576293945312 14.997219920158386 C 9.062576293945312 14.997219920158386 9.062576293945312 27.80087661743164 9.062576293945312 27.80087661743164 C 9.062576293945312 27.80087661743164 5.265769958496094 27.80087661743164 3.4808349609375 27.80087661743164 C 3.4819793701171875 23.853947162628174 3.4800338745117188 19.248793363571167 3.4808349609375 15.047364592552185 C 2.6137161254882812 15.047364592552185 1.9726181030273438 15.047364592552185 1.1057281494140625 15.047364592552185 C 1.1057281494140625 13.571419596672058 1.1057281494140625 12.495574712753296 1.1057281494140625 11.018572449684143 C 1.9469833374023438 11.018572449684143 2.6129150390625 11.018572449684143 3.4546279907226562 11.018572449684143 C 3.5750198364257812 8.073026061058044 3.620452880859375 5.154666543006897 5.083580017089844 3.6687530279159546 C 6.72821044921875 1.998119831085205 8.296623229980469 2.1988495588302612 13.08929443359375 2.1988495588302612 Z"/></g></svg>
