<svg xmlns="http://www.w3.org/2000/svg" xmlns:xlink="http://www.w3.org/1999/xlink"><symbol id="ALARM"><g><path fill="rgb(149,225,211)" stroke="none" paint-order="stroke fill markers" fill-rule="evenodd" d=" M 31.73963165283203 11.502825856208801 C 30.156341552734375 7.806619763374329 27.19312286376953 4.84309983253479 23.49736785888672 3.2600687742233276 C 24.496780395507812 2.473310947418213 25.754714965820312 1.9999573230743408 27.12560272216797 1.9999573230743408 C 30.369888305664062 1.9999573230743408 32.999969482421875 4.629682898521423 32.999969482421875 7.873982787132263 C 32.999969482421875 9.244956254959106 32.526641845703125 10.50265109539032 31.73963165283203 11.502825856208801 Z M 31.49999237060547 17.999732732772827 C 31.49999237060547 21.851961255073547 29.987770080566406 25.34290647506714 27.5374755859375 27.93985676765442 C 27.5374755859375 27.93985676765442 29.565597534179688 29.967695236206055 29.565597534179688 29.967695236206055 C 29.833961486816406 30.23654317855835 30.000015258789062 30.60719084739685 30.000015258789062 31.016655325889587 C 30.000015258789062 31.835735321044922 29.335914611816406 32.499699115753174 28.516860961914062 32.499699115753174 C 28.107276916503906 32.499699115753174 27.736488342285156 32.33401024341583 27.468124389648438 32.06516230106354 C 27.468124389648438 32.06516230106354 25.289627075195312 29.886587738990784 25.289627075195312 29.886587738990784 C 22.939125061035156 31.529278874397278 20.084854125976562 32.499699115753174 16.999984741210938 32.499699115753174 C 13.921180725097656 32.499699115753174 11.071830749511719 31.53350794315338 8.723960876464844 29.89670729637146 C 8.723960876464844 29.89670729637146 6.5606842041015625 32.06032907962799 6.5606842041015625 32.06032907962799 C 6.289115905761719 32.33159363269806 5.914207458496094 32.499699115753174 5.499931335449219 32.499699115753174 C 4.671607971191406 32.499699115753174 3.9999542236328125 31.827881336212158 3.9999542236328125 30.99943697452545 C 3.9999542236328125 30.58574342727661 4.167839050292969 30.210262537002563 4.439292907714844 29.938997983932495 C 4.439292907714844 29.938997983932495 6.451164245605469 27.92747163772583 6.451164245605469 27.92747163772583 C 4.0077362060546875 25.331578612327576 2.4999771118164062 21.84531557559967 2.4999771118164062 17.999732732772827 C 2.4999771118164062 9.99184000492096 8.991867065429688 3.4996153116226196 16.999984741210938 3.4996153116226196 C 25.008102416992188 3.4996153116226196 31.49999237060547 9.99184000492096 31.49999237060547 17.999732732772827 Z M 16.999984741210938 6.499535441398621 C 10.648628234863281 6.499535441398621 5.499931335449219 11.64812457561493 5.499931335449219 17.999732732772827 C 5.499931335449219 24.351189851760864 10.648628234863281 29.499778985977173 16.999984741210938 29.499778985977173 C 23.351226806640625 29.499778985977173 28.499923706054688 24.351189851760864 28.499923706054688 17.999732732772827 C 28.499923706054688 11.64812457561493 23.351226806640625 6.499535441398621 16.999984741210938 6.499535441398621 Z M 23.00000762939453 19.49984383583069 C 23.00000762939453 19.49984383583069 16.999984741210938 19.49984383583069 16.999984741210938 19.49984383583069 C 16.171546936035156 19.49984383583069 15.500007629394531 18.828177094459534 15.500007629394531 17.999732732772827 C 15.500007629394531 17.999732732772827 15.500007629394531 9.999542951583862 15.500007629394531 9.999542951583862 C 15.500007629394531 9.171551704406738 16.171546936035156 8.499884963035583 16.999984741210938 8.499884963035583 C 17.82842254638672 8.499884963035583 18.499961853027344 9.171551704406738 18.499961853027344 9.999542951583862 C 18.499961853027344 9.999542951583862 18.499961853027344 16.499470591545105 18.499961853027344 16.499470591545105 C 18.499961853027344 16.499470591545105 23.00000762939453 16.499470591545105 23.00000762939453 16.499470591545105 C 23.828445434570312 16.499470591545105 24.499984741210938 17.17113733291626 24.499984741210938 17.999732732772827 C 24.499984741210938 18.828177094459534 23.828445434570312 19.49984383583069 23.00000762939453 19.49984383583069 Z M 2.2872314453125 11.705368041992188 C 1.4833984375 10.684954166412354 1 9.399921417236328 1 7.999797582626343 C 1 4.685718059539795 3.6862716674804688 1.9999573230743408 6.999908447265625 1.9999573230743408 C 8.400093078613281 1.9999573230743408 9.685035705566406 2.483430504798889 10.705848693847656 3.2868025302886963 C 6.930900573730469 4.9039682149887085 3.9042816162109375 7.930622100830078 2.2872314453125 11.705368041992188 Z"/></g></symbol><symbol id="BOOK"><g><path fill="rgb(149,225,211)" stroke="none" paint-order="stroke fill markers" fill-rule="evenodd" d=" M 33.06451416015625 26.889341115951538 C 33.06451416015625 26.889341115951538 18.59368896484375 32.877249360084534 18.59368896484375 32.877249360084534 C 18.41161346435547 32.95578920841217 18.21088409423828 32.999892354011536 17.999969482421875 32.999892354011536 C 17.78905487060547 32.999892354011536 17.58832550048828 32.95578920841217 17.40625 32.877249360084534 C 17.40625 32.877249360084534 2.9353103637695312 26.889341115951538 2.9353103637695312 26.889341115951538 C 2.3867950439453125 26.66640877723694 1.9999847412109375 26.128108739852905 1.9999847412109375 25.499940991401672 C 1.9999847412109375 25.499940991401672 1.9999847412109375 2.49969744682312 1.9999847412109375 2.49969744682312 C 1.9999847412109375 1.6711020469665527 2.6715240478515625 1.0000394582748413 3.4999618530273438 1.0000394582748413 C 3.7032089233398438 1.0000394582748413 3.896728515625 1.0405176877975464 4.07342529296875 1.1139222383499146 C 4.07342529296875 1.1139222383499146 4.073539733886719 1.1139222383499146 4.073539733886719 1.1139222383499146 C 4.073539733886719 1.1139222383499146 4.0759429931640625 1.1149795055389404 4.0759429931640625 1.1149795055389404 C 4.080406188964844 1.1161878108978271 4.084869384765625 1.1186044216156006 4.089332580566406 1.1204168796539307 C 4.089332580566406 1.1204168796539307 17.999969482421875 6.876481533050537 17.999969482421875 6.876481533050537 C 17.999969482421875 6.876481533050537 31.910606384277344 1.1204168796539307 31.910606384277344 1.1204168796539307 C 31.914955139160156 1.1186044216156006 31.919532775878906 1.1161878108978271 31.923995971679688 1.1149795055389404 C 31.923995971679688 1.1149795055389404 31.926513671875 1.1139222383499146 31.926513671875 1.1139222383499146 C 31.926513671875 1.1139222383499146 31.926513671875 1.1139222383499146 31.926513671875 1.1139222383499146 C 32.10321044921875 1.0405176877975464 32.296730041503906 1.0000394582748413 32.499977111816406 1.0000394582748413 C 33.32841491699219 1.0000394582748413 33.99995422363281 1.6711020469665527 33.99995422363281 2.49969744682312 C 33.99995422363281 2.49969744682312 33.99995422363281 25.499940991401672 33.99995422363281 25.499940991401672 C 33.99995422363281 26.128108739852905 33.61314392089844 26.66640877723694 33.06451416015625 26.889341115951538 Z M 16.49999237060547 9.50258219242096 C 16.49999237060547 9.50258219242096 4.99993896484375 4.7438225746154785 4.99993896484375 4.7438225746154785 C 4.99993896484375 4.7438225746154785 4.99993896484375 24.496745467185974 4.99993896484375 24.496745467185974 C 4.99993896484375 24.496745467185974 16.49999237060547 29.255656123161316 16.49999237060547 29.255656123161316 C 16.49999237060547 29.255656123161316 16.49999237060547 9.50258219242096 16.49999237060547 9.50258219242096 Z M 31 4.7438225746154785 C 31 4.7438225746154785 19.49994659423828 9.50258219242096 19.49994659423828 9.50258219242096 C 19.49994659423828 9.50258219242096 19.49994659423828 29.255656123161316 19.49994659423828 29.255656123161316 C 19.49994659423828 29.255656123161316 31 24.496745467185974 31 24.496745467185974 C 31 24.496745467185974 31 4.7438225746154785 31 4.7438225746154785 Z M 21.879287719726562 11.634032845497131 C 21.879287719726562 11.634032845497131 27.379318237304688 9.134200096130371 27.379318237304688 9.134200096130371 C 27.379318237304688 9.134200096130371 27.379318237304688 9.134200096130371 27.379318237304688 9.134200096130371 C 27.56848907470703 9.04780626296997 27.778488159179688 8.999625086784363 27.99993133544922 8.999625086784363 C 28.828369140625 8.999625086784363 29.500022888183594 9.671291828155518 29.500022888183594 10.499736189842224 C 29.500022888183594 11.106607556343079 29.139305114746094 11.629350662231445 28.62065887451172 11.865272283554077 C 28.62065887451172 11.865272283554077 28.62065887451172 11.865272283554077 28.62065887451172 11.865272283554077 C 28.62065887451172 11.865272283554077 23.120628356933594 14.365105032920837 23.120628356933594 14.365105032920837 C 23.120628356933594 14.365105032920837 23.120628356933594 14.365105032920837 23.120628356933594 14.365105032920837 C 22.93145751953125 14.451649904251099 22.721458435058594 14.499831080436707 22.500015258789062 14.499831080436707 C 21.67157745361328 14.499831080436707 20.999923706054688 13.828164339065552 20.999923706054688 12.999568939208984 C 20.999923706054688 12.39284861087799 21.360641479492188 11.870105504989624 21.879287719726562 11.634032845497131 Z M 21.879287719726562 17.134389877319336 C 21.879287719726562 17.134389877319336 21.879287719726562 17.134389877319336 21.879287719726562 17.134389877319336 C 21.879287719726562 17.134389877319336 27.379318237304688 14.633952975273132 27.379318237304688 14.633952975273132 C 27.379318237304688 14.633952975273132 27.379318237304688 14.633952975273132 27.379318237304688 14.633952975273132 C 27.56848907470703 14.548163294792175 27.778488159179688 14.499831080436707 27.99993133544922 14.499831080436707 C 28.828369140625 14.499831080436707 29.500022888183594 15.171044707298279 29.500022888183594 15.999489068984985 C 29.500022888183594 16.606964588165283 29.139305114746094 17.129103541374207 28.62065887451172 17.36502516269684 C 28.62065887451172 17.36502516269684 23.120628356933594 19.865462064743042 23.120628356933594 19.865462064743042 C 23.120628356933594 19.865462064743042 23.120628356933594 19.8648579120636 23.120628356933594 19.8648579120636 C 22.93145751953125 19.951251745224 22.721458435058594 19.999583959579468 22.500015258789062 19.999583959579468 C 21.67157745361328 19.999583959579468 20.999923706054688 19.327917218208313 20.999923706054688 18.49992597103119 C 20.999923706054688 17.892601490020752 21.360641479492188 17.37046253681183 21.879287719726562 17.134389877319336 Z M 21.879287719726562 22.634142756462097 C 21.879287719726562 22.634142756462097 21.879287719726562 22.634142756462097 21.879287719726562 22.634142756462097 C 21.879287719726562 22.634142756462097 27.379318237304688 20.134310007095337 27.379318237304688 20.134310007095337 C 27.379318237304688 20.134310007095337 27.379318237304688 20.134310007095337 27.379318237304688 20.134310007095337 C 27.56848907470703 20.047916173934937 27.778488159179688 19.999583959579468 27.99993133544922 19.999583959579468 C 28.828369140625 19.999583959579468 29.500022888183594 20.671401739120483 29.500022888183594 21.49984610080719 C 29.500022888183594 22.106566429138184 29.139305114746094 22.62930953502655 28.62065887451172 22.865382194519043 C 28.62065887451172 22.865382194519043 28.62065887451172 22.865382194519043 28.62065887451172 22.865382194519043 C 28.62065887451172 22.865382194519043 23.120628356933594 25.365214943885803 23.120628356933594 25.365214943885803 C 23.120628356933594 25.365214943885803 23.120628356933594 25.365214943885803 23.120628356933594 25.365214943885803 C 22.93145751953125 25.451608777046204 22.721458435058594 25.499940991401672 22.500015258789062 25.499940991401672 C 21.67157745361328 25.499940991401672 20.999923706054688 24.828123211860657 20.999923706054688 23.99967885017395 C 20.999923706054688 23.392958521842957 21.360641479492188 22.87021541595459 21.879287719726562 22.634142756462097 Z M 8.000007629394531 8.999625086784363 C 8.221450805664062 8.999625086784363 8.431449890136719 9.04780626296997 8.620620727539062 9.134200096130371 C 8.620620727539062 9.134200096130371 8.620620727539062 9.134200096130371 8.620620727539062 9.134200096130371 C 8.620620727539062 9.134200096130371 14.120651245117188 11.634032845497131 14.120651245117188 11.634032845497131 C 14.120651245117188 11.634032845497131 14.120651245117188 11.634032845497131 14.120651245117188 11.634032845497131 C 14.639297485351562 11.870105504989624 15.000015258789062 12.39284861087799 15.000015258789062 12.999568939208984 C 15.000015258789062 13.828164339065552 14.328361511230469 14.499831080436707 13.499923706054688 14.499831080436707 C 13.278480529785156 14.499831080436707 13.0684814453125 14.451649904251099 12.879310607910156 14.365105032920837 C 12.879310607910156 14.365105032920837 12.879310607910156 14.365105032920837 12.879310607910156 14.365105032920837 C 12.879310607910156 14.365105032920837 7.379280090332031 11.865272283554077 7.379280090332031 11.865272283554077 C 7.379280090332031 11.865272283554077 7.379280090332031 11.865272283554077 7.379280090332031 11.865272283554077 C 6.860633850097656 11.629350662231445 6.499916076660156 11.106607556343079 6.499916076660156 10.499736189842224 C 6.499916076660156 9.671291828155518 7.17156982421875 8.999625086784363 8.000007629394531 8.999625086784363 Z M 8.000007629394531 14.499831080436707 C 8.221450805664062 14.499831080436707 8.431449890136719 14.548163294792175 8.620620727539062 14.633952975273132 C 8.620620727539062 14.633952975273132 8.620620727539062 14.633952975273132 8.620620727539062 14.633952975273132 C 8.620620727539062 14.633952975273132 14.120651245117188 17.134389877319336 14.120651245117188 17.134389877319336 C 14.120651245117188 17.134389877319336 14.120651245117188 17.134389877319336 14.120651245117188 17.134389877319336 C 14.639297485351562 17.37046253681183 15.000015258789062 17.892601490020752 15.000015258789062 18.49992597103119 C 15.000015258789062 19.327917218208313 14.328361511230469 19.999583959579468 13.499923706054688 19.999583959579468 C 13.278480529785156 19.999583959579468 13.0684814453125 19.951251745224 12.879310607910156 19.8648579120636 C 12.879310607910156 19.8648579120636 12.879310607910156 19.865462064743042 12.879310607910156 19.865462064743042 C 12.879310607910156 19.865462064743042 7.379280090332031 17.36502516269684 7.379280090332031 17.36502516269684 C 7.379280090332031 17.36502516269684 7.379280090332031 17.36502516269684 7.379280090332031 17.36502516269684 C 6.860633850097656 17.129103541374207 6.499916076660156 16.606964588165283 6.499916076660156 15.999489068984985 C 6.499916076660156 15.171044707298279 7.17156982421875 14.499831080436707 8.000007629394531 14.499831080436707 Z M 8.000007629394531 19.999583959579468 C 8.221450805664062 19.999583959579468 8.431449890136719 20.047916173934937 8.620620727539062 20.134310007095337 C 8.620620727539062 20.134310007095337 8.620620727539062 20.134310007095337 8.620620727539062 20.134310007095337 C 8.620620727539062 20.134310007095337 14.120651245117188 22.634142756462097 14.120651245117188 22.634142756462097 C 14.120651245117188 22.634142756462097 14.120651245117188 22.634142756462097 14.120651245117188 22.634142756462097 C 14.639297485351562 22.87021541595459 15.000015258789062 23.392958521842957 15.000015258789062 23.99967885017395 C 15.000015258789062 24.828123211860657 14.328361511230469 25.499940991401672 13.499923706054688 25.499940991401672 C 13.278480529785156 25.499940991401672 13.0684814453125 25.451608777046204 12.879310607910156 25.365214943885803 C 12.879310607910156 25.365214943885803 12.879310607910156 25.365214943885803 12.879310607910156 25.365214943885803 C 12.879310607910156 25.365214943885803 7.379280090332031 22.865382194519043 7.379280090332031 22.865382194519043 C 7.379280090332031 22.865382194519043 7.379280090332031 22.865382194519043 7.379280090332031 22.865382194519043 C 6.860633850097656 22.62930953502655 6.499916076660156 22.106566429138184 6.499916076660156 21.49984610080719 C 6.499916076660156 20.671401739120483 7.17156982421875 19.999583959579468 8.000007629394531 19.999583959579468 Z"/></g></symbol><symbol id="cart"><g><path stroke="none" paint-order="stroke fill markers" d=" M 18.725997924804688 4.662798166275024 C 18.725997924804688 4.662798166275024 18.727256774902344 4.663402318954468 18.727256774902344 4.663402318954468 C 18.727256774902344 4.663402318954468 16.252357482910156 10.163155198097229 16.252357482910156 10.163155198097229 C 16.252357482910156 10.163155198097229 16.252243041992188 10.163155198097229 16.252243041992188 10.163155198097229 C 16.13013458251953 10.434268712997437 15.866119384765625 10.62744653224945 15.554840087890625 10.647685647010803 C 15.554840087890625 10.647685647010803 15.554840087890625 10.647685647010803 15.554840087890625 10.647685647010803 C 15.554840087890625 10.647685647010803 8.427230834960938 11.122700691223145 8.427230834960938 11.122700691223145 C 8.427230834960938 11.122700691223145 8.8389892578125 12.299288034439087 8.8389892578125 12.299288034439087 C 8.8389892578125 12.299288034439087 16.60002899169922 12.299288034439087 16.60002899169922 12.299288034439087 C 17.511207580566406 12.299288034439087 18.249923706054688 13.038468837738037 18.249923706054688 13.949833154678345 C 18.249923706054688 14.861197471618652 17.511207580566406 15.599623084068298 16.60002899169922 15.599623084068298 C 15.688735961914062 15.599623084068298 14.949905395507812 14.861197471618652 14.949905395507812 13.949833154678345 C 14.949905395507812 13.949833154678345 7.249977111816406 13.949833154678345 7.249977111816406 13.949833154678345 C 7.249977111816406 14.861197471618652 6.511260986328125 15.599623084068298 5.599967956542969 15.599623084068298 C 4.6886749267578125 15.599623084068298 3.9499588012695312 14.861197471618652 3.9499588012695312 13.949833154678345 C 3.9499588012695312 13.038468837738037 4.6886749267578125 12.299288034439087 5.599967956542969 12.299288034439087 C 5.599967956542969 12.299288034439087 7.090904235839844 12.299288034439087 7.090904235839844 12.299288034439087 C 7.090904235839844 12.299288034439087 3.9147109985351562 3.2246127128601074 3.9147109985351562 3.2246127128601074 C 3.9147109985351562 3.2246127128601074 2.0249481201171875 3.2246127128601074 2.0249481201171875 3.2246127128601074 C 1.5693588256835938 3.2246127128601074 1.1999435424804688 2.8550223112106323 1.1999435424804688 2.3996422290802 C 1.1999435424804688 1.944262146949768 1.5693588256835938 1.574671745300293 2.0249481201171875 1.574671745300293 C 2.0249481201171875 1.574671745300293 4.499961853027344 1.574671745300293 4.499961853027344 1.574671745300293 C 4.8598785400390625 1.574671745300293 5.1629180908203125 1.8065153360366821 5.2755279541015625 2.128377676010132 C 5.2755279541015625 2.128377676010132 5.278617858886719 2.127169370651245 5.278617858886719 2.127169370651245 C 5.278617858886719 2.127169370651245 5.759040832519531 3.4999552965164185 5.759040832519531 3.4999552965164185 C 5.759040832519531 3.4999552965164185 17.97492218017578 3.4999552965164185 17.97492218017578 3.4999552965164185 C 18.430625915527344 3.4999552965164185 18.7999267578125 3.86894154548645 18.7999267578125 4.324925780296326 C 18.7999267578125 4.445303201675415 18.77257537841797 4.559034943580627 18.725997924804688 4.662798166275024 Z M 6.336509704589844 5.149745225906372 C 6.336509704589844 5.149745225906372 7.861663818359375 9.50689435005188 7.861663818359375 9.50689435005188 C 7.861663818359375 9.50689435005188 14.950935363769531 9.034144878387451 14.950935363769531 9.034144878387451 C 14.950935363769531 9.034144878387451 16.699020385742188 5.149745225906372 16.699020385742188 5.149745225906372 C 16.699020385742188 5.149745225906372 6.336509704589844 5.149745225906372 6.336509704589844 5.149745225906372 Z"/></g></symbol><symbol id="COMPUTER"><g><path fill="rgb(149,225,211)" stroke="none" paint-order="stroke fill markers" fill-rule="evenodd" d=" M 31.000038146972656 24.99959671497345 C 31.000038146972656 24.99959671497345 23.500038146972656 24.99959671497345 23.500038146972656 24.99959671497345 C 23.500038146972656 24.99959671497345 21.499954223632812 24.99959671497345 21.499954223632812 24.99959671497345 C 21.499954223632812 24.99959671497345 21.499954223632812 27.49942946434021 21.499954223632812 27.49942946434021 C 21.499954223632812 27.49942946434021 23.500038146972656 29.499778985977173 23.500038146972656 29.499778985977173 C 23.500038146972656 29.499778985977173 23.500038146972656 29.999866366386414 23.500038146972656 29.999866366386414 C 23.500038146972656 29.999866366386414 10.500007629394531 29.999866366386414 10.500007629394531 29.999866366386414 C 10.500007629394531 29.999866366386414 10.500007629394531 29.499778985977173 10.500007629394531 29.499778985977173 C 10.500007629394531 29.499778985977173 12.499977111816406 27.49942946434021 12.499977111816406 27.49942946434021 C 12.499977111816406 27.49942946434021 12.499977111816406 24.99959671497345 12.499977111816406 24.99959671497345 C 12.499977111816406 24.99959671497345 10.500007629394531 24.99959671497345 10.500007629394531 24.99959671497345 C 10.500007629394531 24.99959671497345 3.0000076293945312 24.99959671497345 3.0000076293945312 24.99959671497345 C 2.17156982421875 24.99959671497345 1.500030517578125 24.327929973602295 1.500030517578125 23.499334573745728 C 1.500030517578125 23.499334573745728 1.500030517578125 3.4996153116226196 1.500030517578125 3.4996153116226196 C 1.500030517578125 2.671170949935913 2.17156982421875 1.9999573230743408 3.0000076293945312 1.9999573230743408 C 3.0000076293945312 1.9999573230743408 31.000038146972656 1.9999573230743408 31.000038146972656 1.9999573230743408 C 31.828475952148438 1.9999573230743408 32.50001525878906 2.671170949935913 32.50001525878906 3.4996153116226196 C 32.50001525878906 3.4996153116226196 32.50001525878906 23.499334573745728 32.50001525878906 23.499334573745728 C 32.50001525878906 24.327929973602295 31.828475952148438 24.99959671497345 31.000038146972656 24.99959671497345 Z M 30.500045776367188 3.9997026920318604 C 30.500045776367188 3.9997026920318604 3.5 3.9997026920318604 3.5 3.9997026920318604 C 3.5 3.9997026920318604 3.5 20.999501824378967 3.5 20.999501824378967 C 3.5 20.999501824378967 30.500045776367188 20.999501824378967 30.500045776367188 20.999501824378967 C 30.500045776367188 20.999501824378967 30.500045776367188 3.9997026920318604 30.500045776367188 3.9997026920318604 Z M 13.999954223632812 10.999717712402344 C 14.414230346679688 10.999717712402344 14.789138793945312 11.167823195457458 15.060592651367188 11.438936710357666 C 15.060592651367188 11.438936710357666 15.060592651367188 11.438936710357666 15.060592651367188 11.438936710357666 C 15.060592651367188 11.438936710357666 15.999923706054688 12.37839412689209 15.999923706054688 12.37839412689209 C 15.999923706054688 12.37839412689209 18.93933868408203 9.439191341400146 18.93933868408203 9.439191341400146 C 18.93933868408203 9.439191341400146 18.93933868408203 9.439191341400146 18.93933868408203 9.439191341400146 C 19.210792541503906 9.167473673820496 19.58570098876953 8.999972343444824 19.999977111816406 8.999972343444824 C 20.828414916992188 8.999972343444824 21.499954223632812 9.671034932136536 21.499954223632812 10.499630331993103 C 21.499954223632812 10.913928031921387 21.332069396972656 11.288804769515991 21.06061553955078 11.560522437095642 C 21.06061553955078 11.560522437095642 21.06061553955078 11.560522437095642 21.06061553955078 11.560522437095642 C 21.06061553955078 11.560522437095642 17.06067657470703 15.560617327690125 17.06067657470703 15.560617327690125 C 17.06067657470703 15.560617327690125 17.06067657470703 15.560617327690125 17.06067657470703 15.560617327690125 C 16.789222717285156 15.831881880760193 16.414199829101562 15.999987363815308 15.999923706054688 15.999987363815308 C 15.585762023925781 15.999987363815308 15.210739135742188 15.831881880760193 14.939285278320312 15.560617327690125 C 14.939285278320312 15.560617327690125 14.939285278320312 15.560617327690125 14.939285278320312 15.560617327690125 C 14.939285278320312 15.560617327690125 12.939315795898438 13.560267806053162 12.939315795898438 13.560267806053162 C 12.939315795898438 13.560267806053162 12.939315795898438 13.560267806053162 12.939315795898438 13.560267806053162 C 12.667861938476562 13.289154291152954 12.499977111816406 12.913522362709045 12.499977111816406 12.499979853630066 C 12.499977111816406 11.671384453773499 13.171630859375 10.999717712402344 13.999954223632812 10.999717712402344 Z"/></g></symbol><symbol id="facebook"><g><path stroke="none" paint-order="stroke fill markers" fill-rule="evenodd" d=" M 13.08929443359375 2.1988495588302612 C 13.08929443359375 3.6753987073898315 13.08929443359375 6.319926023483276 13.08929443359375 6.319926023483276 C 13.08929443359375 6.319926023483276 10.051689147949219 6.017245531082153 9.291000366210938 7.181296706199646 C 8.8751220703125 7.817318439483643 9.121971130371094 9.680525302886963 9.085121154785156 11.018572449684143 C 10.411148071289062 11.018572449684143 11.788444519042969 11.018572449684143 13.114356994628906 11.018572449684143 C 12.773551940917969 12.583176851272583 12.529678344726562 13.643011689186096 12.279281616210938 14.997219920158386 C 11.131782531738281 14.997219920158386 9.062576293945312 14.997219920158386 9.062576293945312 14.997219920158386 C 9.062576293945312 14.997219920158386 9.062576293945312 27.80087661743164 9.062576293945312 27.80087661743164 C 9.062576293945312 27.80087661743164 5.265769958496094 27.80087661743164 3.4808349609375 27.80087661743164 C 3.4819793701171875 23.853947162628174 3.4800338745117188 19.248793363571167 3.4808349609375 15.047364592552185 C 2.6137161254882812 15.047364592552185 1.9726181030273438 15.047364592552185 1.1057281494140625 15.047364592552185 C 1.1057281494140625 13.571419596672058 1.1057281494140625 12.495574712753296 1.1057281494140625 11.018572449684143 C 1.9469833374023438 11.018572449684143 2.6129150390625 11.018572449684143 3.4546279907226562 11.018572449684143 C 3.5750198364257812 8.073026061058044 3.620452880859375 5.154666543006897 5.083580017089844 3.6687530279159546 C 6.72821044921875 1.998119831085205 8.296623229980469 2.1988495588302612 13.08929443359375 2.1988495588302612 Z"/></g></symbol><symbol id="glass"><g><path stroke="none" d=" M 18.316757202148438 15.982783198356628 C 18.615333557128906 16.28138566017151 18.7999267578125 16.693870902061462 18.7999267578125 17.149855136871338 C 18.7999267578125 18.061219453811646 18.06121063232422 18.79964506626129 17.15003204345703 18.79964506626129 C 16.69432830810547 18.79964506626129 16.281768798828125 18.614925384521484 15.983192443847656 18.316322922706604 C 15.983192443847656 18.316322922706604 15.983192443847656 18.316322922706604 15.983192443847656 18.316322922706604 C 15.983192443847656 18.316322922706604 11.147491455078125 13.480533838272095 11.147491455078125 13.480533838272095 C 10.165130615234375 14.061124563217163 9.023468017578125 14.399601101875305 7.799980163574219 14.399601101875305 C 4.1549224853515625 14.399601101875305 1.1999435424804688 11.444992423057556 1.1999435424804688 7.7996861934661865 C 1.1999435424804688 4.154833078384399 4.1549224853515625 1.199620246887207 7.799980163574219 1.199620246887207 C 11.445037841796875 1.199620246887207 14.39990234375 4.154833078384399 14.39990234375 7.7996861934661865 C 14.39990234375 9.02324640750885 14.0611572265625 10.164792895317078 13.480941772460938 11.14699411392212 C 13.480941772460938 11.14699411392212 18.316757202148438 15.982783198356628 18.316757202148438 15.982783198356628 C 18.316757202148438 15.982783198356628 18.316757202148438 15.982783198356628 18.316757202148438 15.982783198356628 Z M 7.799980163574219 2.8494101762771606 C 5.06610107421875 2.8494101762771606 2.8499526977539062 5.065593242645264 2.8499526977539062 7.7996861934661865 C 2.8499526977539062 10.533628106117249 5.06610107421875 12.749811172485352 7.799980163574219 12.749811172485352 C 10.533744812011719 12.749811172485352 12.749893188476562 10.533628106117249 12.749893188476562 7.7996861934661865 C 12.749893188476562 5.065593242645264 10.533744812011719 2.8494101762771606 7.799980163574219 2.8494101762771606 Z"/></g></symbol><symbol id="GRAPH"><g><path fill="rgb(149,225,211)" stroke="none" paint-order="stroke fill markers" fill-rule="evenodd" d=" M 31.49993896484375 33.999786496162415 C 31.49993896484375 33.999786496162415 2.4999237060546875 33.999786496162415 2.4999237060546875 33.999786496162415 C 1.671600341796875 33.999786496162415 1.00006103515625 33.3279687166214 1.00006103515625 32.49952435493469 C 1.00006103515625 32.49952435493469 1.00006103515625 3.499440550804138 1.00006103515625 3.499440550804138 C 1.00006103515625 2.671600341796875 1.671600341796875 1.9997825622558594 2.4999237060546875 1.9997825622558594 C 2.4999237060546875 1.9997825622558594 31.49993896484375 1.9997825622558594 31.49993896484375 1.9997825622558594 C 32.32837677001953 1.9997825622558594 33.000030517578125 2.671600341796875 33.000030517578125 3.499440550804138 C 33.000030517578125 3.499440550804138 33.000030517578125 32.49952435493469 33.000030517578125 32.49952435493469 C 33.000030517578125 33.3279687166214 32.32837677001953 33.999786496162415 31.49993896484375 33.999786496162415 Z M 29.999961853027344 4.99970269203186 C 29.999961853027344 4.99970269203186 4.0000152587890625 4.99970269203186 4.0000152587890625 4.99970269203186 C 4.0000152587890625 4.99970269203186 4.0000152587890625 30.999866366386414 4.0000152587890625 30.999866366386414 C 4.0000152587890625 30.999866366386414 29.999961853027344 30.999866366386414 29.999961853027344 30.999866366386414 C 29.999961853027344 30.999866366386414 29.999961853027344 4.99970269203186 29.999961853027344 4.99970269203186 Z M 6.215362548828125 18.238500356674194 C 6.215362548828125 18.238500356674194 6.2146759033203125 18.237292051315308 6.2146759033203125 18.237292051315308 C 6.2146759033203125 18.237292051315308 10.214614868164062 15.737459301948547 10.214614868164062 15.737459301948547 C 10.214614868164062 15.737459301948547 10.215415954589844 15.738667607307434 10.215415954589844 15.738667607307434 C 10.4437255859375 15.598051071166992 10.712318420410156 15.516943573951721 10.999908447265625 15.516943573951721 C 11.311302185058594 15.516943573951721 11.600379943847656 15.611795544624329 11.840133666992188 15.774463653564453 C 11.840133666992188 15.774463653564453 11.845970153808594 15.765552401542664 11.845970153808594 15.765552401542664 C 11.845970153808594 15.765552401542664 18.47667694091797 20.185835480690002 18.47667694091797 20.185835480690002 C 18.47667694091797 20.185835480690002 26.11492156982422 14.794528007507324 26.11492156982422 14.794528007507324 C 26.36302947998047 14.612829089164734 26.668930053710938 14.505440950393677 27.00000762939453 14.505440950393677 C 27.828330993652344 14.505440950393677 28.499984741210938 15.176654577255249 28.499984741210938 16.005098938941956 C 28.499984741210938 16.505186319351196 28.254966735839844 16.94803023338318 27.878456115722656 17.220503091812134 C 27.878456115722656 17.220503091812134 27.87891387939453 17.221107244491577 27.87891387939453 17.221107244491577 C 27.87891387939453 17.221107244491577 19.378929138183594 23.22140061855316 19.378929138183594 23.22140061855316 C 19.378929138183594 23.22140061855316 19.37847137451172 23.22079646587372 19.37847137451172 23.22079646587372 C 19.131507873535156 23.399625658988953 18.828125 23.50520133972168 18.500022888183594 23.50520133972168 C 18.179359436035156 23.50520133972168 17.88238525390625 23.4044588804245 17.638626098632812 23.232728481292725 C 17.638626098632812 23.232728481292725 10.982398986816406 18.79522705078125 10.982398986816406 18.79522705078125 C 10.982398986816406 18.79522705078125 7.846832275390625 20.754947304725647 7.846832275390625 20.754947304725647 C 7.6058197021484375 20.920183062553406 7.3142242431640625 21.017300605773926 6.999969482421875 21.017300605773926 C 6.171531677246094 21.017300605773926 5.499992370605469 20.34548282623291 5.499992370605469 19.517038464546204 C 5.499992370605469 18.976472854614258 5.786323547363281 18.502515077590942 6.215362548828125 18.238500356674194 Z"/></g></symbol><symbol id="HOME"><g><path fill="rgb(149,225,211)" stroke="none" paint-order="stroke fill markers" fill-rule="evenodd" d=" M 33.99993133544922 17.499751210212708 C 33.99993133544922 18.328346610069275 33.328392028808594 18.999409198760986 32.49995422363281 18.999409198760986 C 32.10478973388672 18.999409198760986 31.748077392578125 18.84383988380432 31.48017120361328 18.594173789024353 C 31.48017120361328 18.594173789024353 31.47650909423828 18.597647666931152 31.47650909423828 18.597647666931152 C 31.47650909423828 18.597647666931152 18.038169860839844 5.159177541732788 18.038169860839844 5.159177541732788 C 18.038169860839844 5.159177541732788 18.038284301757812 5.158573389053345 18.038284301757812 5.158573389053345 C 18.038284301757812 5.158573389053345 17.99994659423828 5.122324228286743 17.99994659423828 5.122324228286743 C 17.99994659423828 5.122324228286743 17.99994659423828 5.1217200756073 17.99994659423828 5.1217200756073 C 17.99994659423828 5.1217200756073 4.553825378417969 18.56849730014801 4.553825378417969 18.56849730014801 C 4.553825378417969 18.56849730014801 4.553138732910156 18.567893147468567 4.553138732910156 18.567893147468567 C 4.282257080078125 18.83492863178253 3.9104385375976562 18.999409198760986 3.5000534057617188 18.999409198760986 C 2.6715011596679688 18.999409198760986 1.9999618530273438 18.328346610069275 1.9999618530273438 17.499751210212708 C 1.9999618530273438 17.074729800224304 2.177001953125 16.691545963287354 2.4608154296875 16.418619990348816 C 2.4608154296875 16.418619990348816 16.9188232421875 1.9601891040802002 16.9188232421875 1.9601891040802002 C 17.19176483154297 1.676539421081543 17.575027465820312 1.4995226860046387 17.99994659423828 1.4995226860046387 C 17.99994659423828 1.4995226860046387 17.99994659423828 1.4995226860046387 17.99994659423828 1.4995226860046387 C 17.99994659423828 1.4995226860046387 17.99994659423828 1.4995226860046387 17.99994659423828 1.4995226860046387 C 18.00017547607422 1.4995226860046387 18.000289916992188 1.4995226860046387 18.000518798828125 1.4995226860046387 C 18.027069091796875 1.4995226860046387 18.053390502929688 1.500126838684082 18.07959747314453 1.501939296722412 C 18.083717346191406 1.501939296722412 18.08795166015625 1.5025434494018555 18.092071533203125 1.5025434494018555 C 18.114730834960938 1.5042048692703247 18.137161254882812 1.5060173273086548 18.159591674804688 1.5084339380264282 C 18.160964965820312 1.5084339380264282 18.162452697753906 1.5084339380264282 18.1639404296875 1.5090380907058716 C 18.53106689453125 1.5489121675491333 18.858139038085938 1.7212467193603516 19.09697723388672 1.9769543409347534 C 19.09697723388672 1.9769543409347534 19.0977783203125 1.97635018825531 19.0977783203125 1.97635018825531 C 19.0977783203125 1.97635018825531 24.999954223632812 7.878317713737488 24.999954223632812 7.878317713737488 C 24.999954223632812 7.878317713737488 24.999954223632812 6.4997923374176025 24.999954223632812 6.4997923374176025 C 24.999954223632812 5.671196937561035 25.671493530273438 4.99953019618988 26.49993133544922 4.99953019618988 C 27.328369140625 4.99953019618988 27.999908447265625 5.671196937561035 27.999908447265625 6.4997923374176025 C 27.999908447265625 6.4997923374176025 27.999908447265625 10.878237843513489 27.999908447265625 10.878237843513489 C 27.999908447265625 10.878237843513489 33.59778594970703 16.476316571235657 33.59778594970703 16.476316571235657 C 33.59778594970703 16.476316571235657 33.59435272216797 16.479941487312317 33.59435272216797 16.479941487312317 C 33.84406280517578 16.747581124305725 33.99993133544922 17.10463535785675 33.99993133544922 17.499751210212708 Z M 30.999977111816406 19.999583959579468 C 30.999977111816406 19.999583959579468 30.999977111816406 24.49976623058319 30.999977111816406 24.49976623058319 C 30.999977111816406 24.49976623058319 30.999977111816406 26.49951159954071 30.999977111816406 26.49951159954071 C 30.999977111816406 26.49951159954071 30.999977111816406 30.499606490135193 30.999977111816406 30.499606490135193 C 30.999977111816406 31.3280508518219 30.32843780517578 31.999868631362915 29.5 31.999868631362915 C 29.5 31.999868631362915 26.49993133544922 31.999868631362915 26.49993133544922 31.999868631362915 C 26.49993133544922 31.999868631362915 26.49993133544922 19.999583959579468 26.49993133544922 19.999583959579468 C 26.49993133544922 19.999583959579468 20.500022888183594 19.999583959579468 20.500022888183594 19.999583959579468 C 20.500022888183594 19.999583959579468 20.500022888183594 31.999868631362915 20.500022888183594 31.999868631362915 C 20.500022888183594 31.999868631362915 6.500007629394531 31.999868631362915 6.500007629394531 31.999868631362915 C 5.67156982421875 31.999868631362915 5.000030517578125 31.3280508518219 5.000030517578125 30.499606490135193 C 5.000030517578125 30.499606490135193 5.000030517578125 26.49951159954071 5.000030517578125 26.49951159954071 C 5.000030517578125 26.49951159954071 5.000030517578125 24.49976623058319 5.000030517578125 24.49976623058319 C 5.000030517578125 24.49976623058319 5.000030517578125 19.999583959579468 5.000030517578125 19.999583959579468 C 5.000030517578125 19.999583959579468 17.99994659423828 6.999879717826843 17.99994659423828 6.999879717826843 C 17.99994659423828 6.999879717826843 30.999977111816406 19.999583959579468 30.999977111816406 19.999583959579468 Z M 15.499984741210938 19.999583959579468 C 15.499984741210938 19.999583959579468 9.499961853027344 19.999583959579468 9.499961853027344 19.999583959579468 C 9.499961853027344 19.999583959579468 9.499961853027344 26.000028371810913 9.499961853027344 26.000028371810913 C 9.499961853027344 26.000028371810913 15.499984741210938 26.000028371810913 15.499984741210938 26.000028371810913 C 15.499984741210938 26.000028371810913 15.499984741210938 19.999583959579468 15.499984741210938 19.999583959579468 Z"/></g></symbol><symbol id="IMAGE"><g><path fill="rgb(149,225,211)" stroke="none" paint-order="stroke fill markers" fill-rule="evenodd" d=" M 32.500030517578125 32.999892354011536 C 32.500030517578125 32.999892354011536 3.5000152587890625 32.999892354011536 3.5000152587890625 32.999892354011536 C 2.6714630126953125 32.999892354011536 1.9999237060546875 32.32822561264038 1.9999237060546875 31.499781250953674 C 1.9999237060546875 31.499781250953674 1.9999237060546875 2.49969744682312 1.9999237060546875 2.49969744682312 C 1.9999237060546875 1.6711020469665527 2.6714630126953125 1.0000394582748413 3.5000152587890625 1.0000394582748413 C 3.5000152587890625 1.0000394582748413 32.500030517578125 1.0000394582748413 32.500030517578125 1.0000394582748413 C 33.328468322753906 1.0000394582748413 34.00000762939453 1.6711020469665527 34.00000762939453 2.49969744682312 C 34.00000762939453 2.49969744682312 34.00000762939453 31.499781250953674 34.00000762939453 31.499781250953674 C 34.00000762939453 32.32822561264038 33.328468322753906 32.999892354011536 32.500030517578125 32.999892354011536 Z M 31.00005340576172 3.9999595880508423 C 31.00005340576172 3.9999595880508423 4.999992370605469 3.9999595880508423 4.999992370605469 3.9999595880508423 C 4.999992370605469 3.9999595880508423 4.999992370605469 29.999519109725952 4.999992370605469 29.999519109725952 C 4.999992370605469 29.999519109725952 31.00005340576172 29.999519109725952 31.00005340576172 29.999519109725952 C 31.00005340576172 29.999519109725952 31.00005340576172 3.9999595880508423 31.00005340576172 3.9999595880508423 Z M 8.500053405761719 5.499617576599121 C 8.500053405761719 5.499617576599121 13.999855041503906 5.499617576599121 13.999855041503906 5.499617576599121 C 13.999855041503906 5.499617576599121 13.999969482421875 5.499617576599121 13.999969482421875 5.499617576599121 C 14.828407287597656 5.499617576599121 15.499946594238281 6.171284317970276 15.499946594238281 6.999879717826843 C 15.499946594238281 7.82832407951355 14.828407287597656 8.499537706375122 13.999969482421875 8.499537706375122 C 13.999969482421875 8.499537706375122 13.999969482421875 8.499537706375122 13.999969482421875 8.499537706375122 C 13.999969482421875 8.499537706375122 9.500038146972656 8.499537706375122 9.500038146972656 8.499537706375122 C 9.500038146972656 8.499537706375122 9.500038146972656 12.999568939208984 9.500038146972656 12.999568939208984 C 9.500038146972656 12.999568939208984 9.500038146972656 12.999568939208984 9.500038146972656 12.999568939208984 C 9.500038146972656 13.828164339065552 8.828384399414062 14.499831080436707 7.999946594238281 14.499831080436707 C 7.171623229980469 14.499831080436707 6.499969482421875 13.828164339065552 6.499969482421875 12.999568939208984 C 6.499969482421875 12.999568939208984 6.499969482421875 12.999568939208984 6.499969482421875 12.999568939208984 C 6.499969482421875 12.999568939208984 6.499969482421875 7.499967098236084 6.499969482421875 7.499967098236084 C 6.499969482421875 7.499967098236084 6.499969482421875 7.499967098236084 6.499969482421875 7.499967098236084 C 6.499969482421875 7.499967098236084 6.499969482421875 5.499617576599121 6.499969482421875 5.499617576599121 C 6.499969482421875 5.499617576599121 8.500053405761719 5.499617576599121 8.500053405761719 5.499617576599121 C 8.500053405761719 5.499617576599121 8.500053405761719 5.499617576599121 8.500053405761719 5.499617576599121 Z M 6.499969482421875 20.99975872039795 C 6.499969482421875 20.99975872039795 6.499969482421875 20.99975872039795 6.499969482421875 20.99975872039795 C 6.499969482421875 20.171314358711243 7.171623229980469 19.499496579170227 7.999946594238281 19.499496579170227 C 8.828384399414062 19.499496579170227 9.500038146972656 20.171314358711243 9.500038146972656 20.99975872039795 C 9.500038146972656 20.99975872039795 9.500038146972656 20.99975872039795 9.500038146972656 20.99975872039795 C 9.500038146972656 20.99975872039795 9.500038146972656 25.49933683872223 9.500038146972656 25.49933683872223 C 9.500038146972656 25.49933683872223 13.999969482421875 25.49933683872223 13.999969482421875 25.49933683872223 C 13.999969482421875 25.49933683872223 13.999969482421875 25.499940991401672 13.999969482421875 25.499940991401672 C 14.828407287597656 25.499940991401672 15.499946594238281 26.171003580093384 15.499946594238281 26.99959897994995 C 15.499946594238281 27.828043341636658 14.828407287597656 28.499861121177673 13.999969482421875 28.499861121177673 C 13.999969482421875 28.499861121177673 13.999855041503906 28.499861121177673 13.999855041503906 28.499861121177673 C 13.999855041503906 28.499861121177673 8.500053405761719 28.499861121177673 8.500053405761719 28.499861121177673 C 8.500053405761719 28.499861121177673 8.500053405761719 28.499861121177673 8.500053405761719 28.499861121177673 C 8.500053405761719 28.499861121177673 6.499969482421875 28.499861121177673 6.499969482421875 28.499861121177673 C 6.499969482421875 28.499861121177673 6.499969482421875 26.49951159954071 6.499969482421875 26.49951159954071 C 6.499969482421875 26.49951159954071 6.499969482421875 26.49951159954071 6.499969482421875 26.49951159954071 C 6.499969482421875 26.49951159954071 6.499969482421875 20.99975872039795 6.499969482421875 20.99975872039795 Z M 21.999961853027344 5.499617576599121 C 21.999961853027344 5.499617576599121 22.000076293945312 5.499617576599121 22.000076293945312 5.499617576599121 C 22.000076293945312 5.499617576599121 27.49999237060547 5.499617576599121 27.49999237060547 5.499617576599121 C 27.49999237060547 5.499617576599121 27.49999237060547 5.499617576599121 27.49999237060547 5.499617576599121 C 27.49999237060547 5.499617576599121 29.499961853027344 5.499617576599121 29.499961853027344 5.499617576599121 C 29.499961853027344 5.499617576599121 29.499961853027344 7.499967098236084 29.499961853027344 7.499967098236084 C 29.499961853027344 7.499967098236084 29.499961853027344 7.499967098236084 29.499961853027344 7.499967098236084 C 29.499961853027344 7.499967098236084 29.499961853027344 12.999568939208984 29.499961853027344 12.999568939208984 C 29.499961853027344 12.999568939208984 29.499961853027344 12.999568939208984 29.499961853027344 12.999568939208984 C 29.499961853027344 13.828164339065552 28.82830810546875 14.499831080436707 27.999984741210938 14.499831080436707 C 27.171546936035156 14.499831080436707 26.499893188476562 13.828164339065552 26.499893188476562 12.999568939208984 C 26.499893188476562 12.999568939208984 26.499893188476562 12.999568939208984 26.499893188476562 12.999568939208984 C 26.499893188476562 12.999568939208984 26.499893188476562 8.499537706375122 26.499893188476562 8.499537706375122 C 26.499893188476562 8.499537706375122 21.999961853027344 8.499537706375122 21.999961853027344 8.499537706375122 C 21.999961853027344 8.499537706375122 21.999961853027344 8.499537706375122 21.999961853027344 8.499537706375122 C 21.171524047851562 8.499537706375122 20.499984741210938 7.82832407951355 20.499984741210938 6.999879717826843 C 20.499984741210938 6.171284317970276 21.171524047851562 5.499617576599121 21.999961853027344 5.499617576599121 Z M 21.999961853027344 25.499940991401672 C 21.999961853027344 25.499940991401672 21.999961853027344 25.49933683872223 21.999961853027344 25.49933683872223 C 21.999961853027344 25.49933683872223 26.499893188476562 25.49933683872223 26.499893188476562 25.49933683872223 C 26.499893188476562 25.49933683872223 26.499893188476562 20.99975872039795 26.499893188476562 20.99975872039795 C 26.499893188476562 20.99975872039795 26.499893188476562 20.99975872039795 26.499893188476562 20.99975872039795 C 26.499893188476562 20.171314358711243 27.171546936035156 19.499496579170227 27.999984741210938 19.499496579170227 C 28.82830810546875 19.499496579170227 29.499961853027344 20.171314358711243 29.499961853027344 20.99975872039795 C 29.499961853027344 20.99975872039795 29.499961853027344 20.99975872039795 29.499961853027344 20.99975872039795 C 29.499961853027344 20.99975872039795 29.499961853027344 26.49951159954071 29.499961853027344 26.49951159954071 C 29.499961853027344 26.49951159954071 29.499961853027344 26.49951159954071 29.499961853027344 26.49951159954071 C 29.499961853027344 26.49951159954071 29.499961853027344 28.499861121177673 29.499961853027344 28.499861121177673 C 29.499961853027344 28.499861121177673 27.49999237060547 28.499861121177673 27.49999237060547 28.499861121177673 C 27.49999237060547 28.499861121177673 27.49999237060547 28.499861121177673 27.49999237060547 28.499861121177673 C 27.49999237060547 28.499861121177673 22.000076293945312 28.499861121177673 22.000076293945312 28.499861121177673 C 22.000076293945312 28.499861121177673 21.999961853027344 28.499861121177673 21.999961853027344 28.499861121177673 C 21.171524047851562 28.499861121177673 20.499984741210938 27.828043341636658 20.499984741210938 26.99959897994995 C 20.499984741210938 26.171003580093384 21.171524047851562 25.499940991401672 21.999961853027344 25.499940991401672 Z"/></g></symbol><symbol id="instagram"><g><path stroke="none" paint-order="stroke fill markers" fill-rule="evenodd" d=" M 23.69989013671875 26.799668312072754 C 23.69989013671875 26.799668312072754 4.499908447265625 26.799668312072754 4.499908447265625 26.799668312072754 C 2.7327117919921875 26.799668312072754 1.2999114990234375 25.366769194602966 1.2999114990234375 23.59947156906128 C 1.2999114990234375 23.59947156906128 1.2999114990234375 4.399650454521179 1.2999114990234375 4.399650454521179 C 1.2999114990234375 2.632352828979492 2.7327117919921875 1.1994537115097046 4.499908447265625 1.1994537115097046 C 4.499908447265625 1.1994537115097046 23.69989013671875 1.1994537115097046 23.69989013671875 1.1994537115097046 C 25.467315673828125 1.1994537115097046 26.900001525878906 2.632352828979492 26.900001525878906 4.399650454521179 C 26.900001525878906 4.399650454521179 26.900001525878906 23.59947156906128 26.900001525878906 23.59947156906128 C 26.900001525878906 25.366769194602966 25.467315673828125 26.799668312072754 23.69989013671875 26.799668312072754 Z M 14.100013732910156 9.039240956306458 C 12.104393005371094 9.039240956306458 10.388809204101562 10.220661520957947 9.6016845703125 11.919387817382812 C 9.6016845703125 11.919387817382812 9.597221374511719 11.919387817382812 9.597221374511719 11.919387817382812 C 9.588981628417969 11.937361359596252 9.5833740234375 11.956392168998718 9.575363159179688 11.974214673042297 C 9.528213500976562 12.079186201095581 9.486557006835938 12.18702745437622 9.446731567382812 12.295472860336304 C 9.427619934082031 12.348034143447876 9.407135009765625 12.398631930351257 9.389739990234375 12.451042175292969 C 9.353233337402344 12.562508344650269 9.323249816894531 12.676391124725342 9.294525146484375 12.790878057479858 C 9.281021118164062 12.844496607780457 9.264999389648438 12.896906852722168 9.253211975097656 12.95112955570221 C 9.22723388671875 13.072111129760742 9.209037780761719 13.194905161857605 9.191986083984375 13.318907499313354 C 9.18511962890625 13.369052171707153 9.174591064453125 13.417837500572205 9.169212341308594 13.468586325645447 C 9.150558471679688 13.643186450004578 9.139915466308594 13.820203185081482 9.139915466308594 13.99963653087616 C 9.139915466308594 16.739015817642212 11.360641479492188 18.959276914596558 14.100013732910156 18.959276914596558 C 16.839271545410156 18.959276914596558 19.05999755859375 16.739015817642212 19.05999755859375 13.99963653087616 C 19.05999755859375 13.820203185081482 19.049354553222656 13.643186450004578 19.03070068359375 13.468586325645447 C 19.02532196044922 13.417837500572205 19.014793395996094 13.369052171707153 19.00792694091797 13.318907499313354 C 18.990875244140625 13.194905161857605 18.972679138183594 13.072111129760742 18.946701049804688 12.95112955570221 C 18.934913635253906 12.896906852722168 18.91889190673828 12.844496607780457 18.90538787841797 12.790878057479858 C 18.876663208007812 12.676391124725342 18.8466796875 12.562508344650269 18.81017303466797 12.451042175292969 C 18.79277801513672 12.398631930351257 18.772293090820312 12.348034143447876 18.75318145751953 12.295472860336304 C 18.713356018066406 12.18702745437622 18.67169952392578 12.079186201095581 18.624549865722656 11.974214673042297 C 18.616539001464844 11.956392168998718 18.610931396484375 11.937361359596252 18.602691650390625 11.919387817382812 C 18.602691650390625 11.919387817382812 18.598228454589844 11.919387817382812 18.598228454589844 11.919387817382812 C 17.81110382080078 10.220661520957947 16.09552001953125 9.039240956306458 14.100013732910156 9.039240956306458 Z M 24.019981384277344 5.359346985816956 C 24.019981384277344 4.652488350868225 23.446861267089844 4.07960057258606 22.739959716796875 4.07960057258606 C 22.739959716796875 4.07960057258606 20.179916381835938 4.07960057258606 20.179916381835938 4.07960057258606 C 19.47301483154297 4.07960057258606 18.900009155273438 4.652488350868225 18.900009155273438 5.359346985816956 C 18.900009155273438 5.359346985816956 18.900009155273438 7.919897079467773 18.900009155273438 7.919897079467773 C 18.900009155273438 8.626906752586365 19.47301483154297 9.19964349269867 20.179916381835938 9.19964349269867 C 20.179916381835938 9.19964349269867 22.739959716796875 9.19964349269867 22.739959716796875 9.19964349269867 C 23.446861267089844 9.19964349269867 24.019981384277344 8.626906752586365 24.019981384277344 7.919897079467773 C 24.019981384277344 7.919897079467773 24.019981384277344 5.359346985816956 24.019981384277344 5.359346985816956 Z M 24.019981384277344 11.919387817382812 C 24.019981384277344 11.919387817382812 21.660324096679688 11.919387817382812 21.660324096679688 11.919387817382812 C 21.84239959716797 12.582143306732178 21.940017700195312 13.279637575149536 21.940017700195312 13.99963653087616 C 21.940017700195312 18.329900860786438 18.429885864257812 21.839423775672913 14.100013732910156 21.839423775672913 C 9.770027160644531 21.839423775672913 6.260009765625 18.329900860786438 6.260009765625 13.99963653087616 C 6.260009765625 13.279637575149536 6.357627868652344 12.582143306732178 6.539588928222656 11.919387817382812 C 6.539588928222656 11.919387817382812 4.179931640625 11.919387817382812 4.179931640625 11.919387817382812 C 4.179931640625 11.919387817382812 4.179931640625 22.63932192325592 4.179931640625 22.63932192325592 C 4.179931640625 23.346784710884094 4.7530517578125 23.91967248916626 5.459953308105469 23.91967248916626 C 5.459953308105469 23.91967248916626 22.739959716796875 23.91967248916626 22.739959716796875 23.91967248916626 C 23.446861267089844 23.91967248916626 24.019981384277344 23.346784710884094 24.019981384277344 22.63932192325592 C 24.019981384277344 22.63932192325592 24.019981384277344 11.919387817382812 24.019981384277344 11.919387817382812 Z"/></g></symbol><symbol id="pinterest"><g><path stroke="none" paint-order="stroke fill markers" fill-rule="evenodd" d=" M 10.050758361816406 17.85367751121521 C 9.841560363769531 18.686955094337463 9.631217956542969 19.56010675430298 9.412864685058594 20.414227604866028 C 9.197601318359375 21.255812287330627 9.008430480957031 22.110084176063538 8.695320129394531 22.88370168209076 C 8.176216125488281 24.165260553359985 7.516807556152344 25.40316939353943 6.6517486572265625 26.40515661239624 C 6.077140808105469 27.07214117050171 6.199363708496094 26.805709838867188 6.026214599609375 26.76991379261017 C 5.894264221191406 26.742424845695496 5.882591247558594 26.613136172294617 5.856727600097656 26.425395727157593 C 5.715965270996094 25.40679430961609 5.811866760253906 24.230206966400146 5.8643951416015625 23.085790753364563 C 5.9239044189453125 21.782180309295654 6.197990417480469 20.698028326034546 6.452507019042969 19.614933609962463 C 6.937049865722656 17.55145013332367 7.398933410644531 15.527840733528137 7.8877105712890625 13.45121693611145 C 7.920440673828125 13.313017010688782 8.00787353515625 13.084647297859192 7.9776611328125 13.005956411361694 C 7.756103515625 12.428990602493286 7.612251281738281 11.911080718040466 7.549079895019531 11.305417656898499 C 7.4761810302734375 10.609886884689331 7.532142639160156 9.961328983306885 7.688468933105469 9.362311601638794 C 7.964500427246094 8.304440259933472 8.601249694824219 7.366795301437378 9.582351684570312 7.024089694023132 C 10.2060546875 6.807651996612549 10.89727783203125 6.905524730682373 11.316818237304688 7.156399130821228 C 11.749176025390625 7.414523363113403 12.045578002929688 7.822779536247253 12.184051513671875 8.401557803153992 C 12.331565856933594 9.017189383506775 12.222846984863281 9.752745270729065 12.104171752929688 10.293461918830872 C 11.837066650390625 11.511735796928406 11.486305236816406 12.426573991775513 11.167243957519531 13.602708220481873 C 11.009086608886719 14.186168670654297 10.830215454101562 14.785186052322388 10.97784423828125 15.414562106132507 C 11.113685607910156 15.992736220359802 11.414665222167969 16.391023874282837 11.825279235839844 16.689626336097717 C 12.250656127929688 16.99955666065216 12.754539489746094 17.169323563575745 13.449882507324219 17.14500641822815 C 14.677604675292969 17.10211157798767 15.530990600585938 16.317015171051025 16.101478576660156 15.57677710056305 C 17.013572692871094 14.392335772514343 17.566322326660156 12.793143630027771 17.775978088378906 10.890666842460632 C 17.84349822998047 10.277300834655762 17.893051147460938 9.572254657745361 17.845672607421875 8.876572847366333 C 17.758468627929688 7.592748403549194 17.356666564941406 6.560402512550354 16.719345092773438 5.759900212287903 C 16.11292266845703 4.997459530830383 15.253013610839844 4.39073920249939 14.207481384277344 4.049241900444031 C 13.170417785644531 3.710614323616028 11.734756469726562 3.5979398488998413 10.459541320800781 3.816190004348755 C 8.1424560546875 4.213118314743042 6.507896423339844 5.530322194099426 5.5453338623046875 7.348972797393799 C 5.040992736816406 8.300815343856812 4.7080841064453125 9.396295189857483 4.7080841064453125 10.75896155834198 C 4.7080841064453125 11.809734106063843 4.9674072265625 12.62398087978363 5.3860321044921875 13.25879430770874 C 5.518669128417969 13.46012818813324 5.714134216308594 13.625968098640442 5.844482421875 13.855999231338501 C 6.029075622558594 14.181939601898193 5.815986633300781 14.667225241661072 5.724662780761719 15.020050406455994 C 5.6149139404296875 15.445071816444397 5.603240966796875 16.03215718269348 5.1067962646484375 16.042276740074158 C 4.9014892578125 16.045901656150818 4.643196105957031 15.895618677139282 4.468788146972656 15.799105286598206 C 3.164276123046875 15.077898025512695 2.3715438842773438 13.76598048210144 2.0466461181640625 12.064837574958801 C 1.8492355346679688 11.031283378601074 1.849578857421875 9.82554566860199 2.0466461181640625 8.826579213142395 C 2.2370758056640625 7.8603880405426025 2.5914993286132812 6.968658685684204 2.9836883544921875 6.245638966560364 C 3.7979354858398438 4.742960214614868 4.990638732910156 3.541451573371887 6.4425506591796875 2.6831016540527344 C 7.558692932128906 2.0226117372512817 8.818000793457031 1.5601328611373901 10.34979248046875 1.3372005224227905 C 10.858253479003906 1.2627387046813965 11.384223937988281 1.2322289943695068 11.954826354980469 1.2054952383041382 C 13.622688293457031 1.1268043518066406 15.139373779296875 1.504701852798462 16.280921936035156 2.014908790588379 C 17.486099243164062 2.5536619424819946 18.44751739501953 3.2713953256607056 19.261077880859375 4.160708069801331 C 20.098556518554688 5.0755462646484375 20.708641052246094 6.140214323997498 21.09545135498047 7.4699543714523315 C 21.29663848876953 8.161860227584839 21.492904663085938 8.902249336242676 21.492904663085938 9.756974339485168 C 21.492904663085938 10.614720106124878 21.311630249023438 11.369910955429077 21.18505859375 12.125101804733276 C 20.711044311523438 14.953291535377502 19.36602020263672 17.265987992286682 17.347396850585938 18.582587718963623 C 16.857818603515625 18.901429295539856 16.265586853027344 19.195953726768494 15.593017578125 19.392001271247864 C 14.925941467285156 19.586387395858765 14.165138244628906 19.731837153434753 13.350204467773438 19.67519783973694 C 12.558616638183594 19.620975136756897 11.911453247070312 19.4057457447052 11.366714477539062 19.09823203086853 C 10.826553344726562 18.792983889579773 10.372566223144531 18.419315457344055 10.050758361816406 17.85367751121521 Z"/></g></symbol><symbol id="twitter"><g><path stroke="none" paint-order="stroke fill markers" fill-rule="evenodd" d=" M 18.512603759765625 1.600960612297058 C 20.547019958496094 1.5645604133605957 21.629745483398438 2.3061578273773193 22.66394805908203 3.248484969139099 C 23.541824340820312 3.1734189987182617 24.68268585205078 2.682847023010254 25.35468292236328 2.341349720954895 C 25.572463989257812 2.222633719444275 25.790359497070312 2.102860450744629 26.008026123046875 1.9842954874038696 C 25.624305725097656 3.021323561668396 25.10382843017578 3.83315372467041 24.304000854492188 4.449540495872498 C 24.126388549804688 4.585927963256836 23.950035095214844 4.771402835845947 23.727447509765625 4.858400821685791 C 23.727447509765625 4.862025737762451 23.727447509765625 4.866707921028137 23.727447509765625 4.870936989784241 C 24.867164611816406 4.859609127044678 25.80718231201172 4.345173120498657 26.700050354003906 4.066205620765686 C 26.700050354003906 4.0704346895217896 26.700050354003906 4.074512720108032 26.700050354003906 4.079345941543579 C 26.23107147216797 4.824417233467102 25.596267700195312 5.580816388130188 24.91900634765625 6.123194456100464 C 24.645721435546875 6.34008526802063 24.37232208251953 6.557127118110657 24.099037170410156 6.774017930030823 C 24.113914489746094 7.981114983558655 24.08118438720703 9.132629990577698 23.855506896972656 10.147153377532959 C 22.543899536132812 16.042022109031677 19.068443298339844 20.044382572174072 13.566810607910156 21.758665800094604 C 11.591331481933594 22.37444841861725 8.398773193359375 22.627135276794434 6.1353607177734375 22.06512224674225 C 5.0129241943359375 21.78675889968872 3.9990921020507812 21.47199535369873 3.047515869140625 21.05648934841156 C 2.5190277099609375 20.825249910354614 2.029449462890625 20.574979662895203 1.5612716674804688 20.289366483688354 C 1.4074630737304688 20.195873856544495 1.2537689208984375 20.102230191230774 1.0999603271484375 20.008737564086914 C 1.6104812622070312 20.02414345741272 2.2077484130859375 20.164911031723022 2.7784652709960938 20.07247567176819 C 3.2948226928710938 19.988951563835144 3.8012237548828125 20.011003136634827 4.27752685546875 19.906786799430847 C 5.4656524658203125 19.645641803741455 6.52056884765625 19.30112373828888 7.4294586181640625 18.769469380378723 C 7.87005615234375 18.51149618625641 8.538619995117188 18.209268808364868 8.851730346679688 17.83726179599762 C 8.261672973632812 17.847381353378296 7.726890563964844 17.710389733314514 7.288581848144531 17.556028723716736 C 5.589591979980469 16.9564071893692 4.6007080078125 15.853073358535767 3.9572067260742188 14.196033596992493 C 4.472076416015625 14.252672910690308 5.955116271972656 14.386794805526733 6.3019866943359375 14.094082832336426 C 5.6537933349609375 14.058286786079407 5.030548095703125 13.682805895805359 4.58514404296875 13.404442548751831 C 3.2183761596679688 12.549113392829895 2.1038360595703125 11.115157008171082 2.1121902465820312 8.907885193824768 C 2.2915191650390625 8.993221759796143 2.4709625244140625 9.078407287597656 2.6502914428710938 9.162988662719727 C 2.9936141967773438 9.307834267616272 3.3426589965820312 9.385316848754883 3.7522430419921875 9.470049262046814 C 3.9252777099609375 9.505694270133972 4.2711181640625 9.607040882110596 4.46978759765625 9.533183217048645 C 4.461204528808594 9.533183217048645 4.4526214599609375 9.533183217048645 4.44415283203125 9.533183217048645 C 4.179679870605469 9.226273655891418 3.7489242553710938 9.020559668540955 3.4831924438476562 8.690390229225159 C 2.6063461303710938 7.60080087184906 1.7845458984375 5.923521995544434 2.3044509887695312 3.925589084625244 C 2.4362869262695312 3.4188560247421265 2.6453704833984375 2.9719340801239014 2.8681869506835938 2.5588446855545044 C 2.8766555786132812 2.563073754310608 2.8852386474609375 2.5671517848968506 2.8938217163085938 2.571380853652954 C 2.99578857421875 2.785401940345764 3.2235260009765625 2.942028522491455 3.3678359985351562 3.1208577156066895 C 3.815643310546875 3.675771951675415 4.368049621582031 4.175255179405212 4.9309844970703125 4.615229368209839 C 6.848899841308594 6.115491509437561 8.576156616210938 7.036975383758545 11.350204467773438 7.719365835189819 C 12.053901672363281 7.892908692359924 12.867233276367188 8.02521812915802 13.707801818847656 8.026426434516907 C 13.471710205078125 7.338598608970642 13.547584533691406 6.2263535261154175 13.733436584472656 5.5605772733688354 C 14.200927734375 3.8873764276504517 15.21624755859375 2.681638717651367 16.706039428710938 2.0354974269866943 C 17.062179565429688 1.8805322647094727 17.457229614257812 1.7678577899932861 17.871963500976562 1.6772348880767822 C 18.08551025390625 1.6517094373703003 18.299057006835938 1.6260329484939575 18.512603759765625 1.600960612297058 Z"/></g></symbol></svg>