<?xml version="1.0" standalone="no"?>
<!DOCTYPE svg PUBLIC "-//W3C//DTD SVG 20010904//EN"
 "http://www.w3.org/TR/2001/REC-SVG-20010904/DTD/svg10.dtd">
<svg version="1.0" xmlns="http://www.w3.org/2000/svg"
 width="150.000000pt" height="150.000000pt" viewBox="0 0 150.000000 150.000000"
 preserveAspectRatio="xMidYMid meet">
<metadata>
Created by potrace 1.15, written by Peter Selinger 2001-2017
</metadata>
<g transform="translate(0.000000,150.000000) scale(0.100000,-0.100000)"
fill="#000000" stroke="none">
<path d="M1013 1066 c0 -20 2 -24 8 -15 7 11 9 10 9 -3 0 -10 -5 -18 -11 -18
-6 0 -3 -7 5 -16 21 -21 20 -30 -1 -13 -15 13 -15 12 -4 -8 9 -18 9 -23 -1
-23 -9 0 -9 -3 2 -10 12 -8 12 -10 1 -10 -10 0 -11 -3 -2 -14 9 -10 9 -16 1
-21 -6 -4 -9 -14 -6 -22 3 -8 2 -12 -3 -9 -14 9 -21 -20 -8 -34 9 -9 9 -11 1
-7 -7 4 -15 0 -18 -9 -3 -8 -2 -12 4 -9 6 3 7 -1 4 -9 -3 -9 -11 -13 -18 -9
-6 4 -4 -2 4 -12 8 -10 10 -16 5 -13 -6 4 -21 -10 -34 -30 -20 -31 -21 -34 -5
-22 12 9 10 4 -5 -13 -14 -15 -20 -27 -15 -27 5 0 -4 -12 -21 -26 -16 -14 -24
-22 -16 -18 9 5 12 3 7 -4 -4 -7 -13 -12 -20 -12 -17 0 -56 -42 -56 -61 0 -12
-2 -12 -10 1 -8 13 -10 13 -10 -1 0 -9 -8 -23 -17 -30 -16 -12 -17 -12 -8 1 6
10 4 9 -6 -2 -9 -9 -19 -14 -23 -11 -3 4 -6 -2 -6 -13 0 -16 -2 -17 -10 -4 -8
12 -10 12 -10 -5 0 -17 -2 -17 -10 -5 -8 12 -10 12 -11 -5 0 -12 -3 -15 -6 -7
-4 10 -9 9 -20 -5 -8 -10 -11 -11 -7 -3 6 11 2 10 -13 -3 -11 -9 -23 -14 -26
-10 -4 3 -7 0 -7 -8 0 -11 -2 -11 -10 1 -7 11 -10 11 -10 2 0 -7 -4 -11 -9 -7
-5 3 -13 0 -17 -6 -4 -8 -9 -7 -15 2 -7 11 -9 9 -9 -6 0 -17 -2 -17 -10 -5 -6
10 -10 11 -10 3 0 -7 -5 -13 -11 -13 -5 0 -7 6 -3 13 6 10 4 10 -7 0 -7 -7
-21 -13 -32 -13 -11 0 -16 5 -12 13 4 6 -1 3 -9 -7 -9 -11 -16 -14 -16 -7 0 7
-5 9 -10 6 -6 -4 -8 -11 -5 -16 4 -5 1 -9 -5 -9 -6 0 -8 -5 -5 -10 3 -6 -1
-13 -10 -16 -10 -4 -28 4 -48 22 -23 20 -20 16 8 -15 156 -170 414 -213 629
-104 95 48 238 209 204 229 -7 4 -10 4 -6 -1 8 -8 -16 -60 -33 -70 -7 -5 -7
-2 0 11 95 174 104 352 27 508 -45 92 -82 127 -133 129 -36 2 -39 0 -40 -27z"/>
</g>
</svg>
