<?xml version="1.0" standalone="no"?>
<!DOCTYPE svg PUBLIC "-//W3C//DTD SVG 20010904//EN"
 "http://www.w3.org/TR/2001/REC-SVG-20010904/DTD/svg10.dtd">
<svg version="1.0" xmlns="http://www.w3.org/2000/svg"
 width="150.000000pt" height="150.000000pt" viewBox="0 0 150.000000 150.000000"
 preserveAspectRatio="xMidYMid meet">
<metadata>
Created by potrace 1.15, written by Peter Selinger 2001-2017
</metadata>
<g transform="translate(0.000000,150.000000) scale(0.100000,-0.100000)"
fill="#000000" stroke="none">
<path d="M754 1241 c4 -6 1 -11 -6 -11 -9 0 -14 -12 -14 -32 -1 -53 -11 -96
-32 -138 -10 -22 -14 -37 -8 -34 6 3 2 -2 -8 -10 -11 -9 -17 -16 -14 -16 3 0
-8 -15 -26 -33 -37 -39 -113 -97 -101 -76 7 11 6 12 -7 2 -8 -7 -19 -9 -23 -5
-5 4 -5 1 -1 -5 5 -8 1 -13 -11 -14 -10 0 -27 -3 -38 -6 -11 -2 -30 -5 -42 -6
-13 0 -23 -5 -23 -10 0 -4 -4 -5 -10 -2 -6 3 -7 -1 -4 -10 5 -11 2 -14 -11 -8
-16 6 -17 1 -13 -47 6 -61 -6 -47 -17 20 -8 45 -24 80 -37 80 -5 0 -8 -7 -8
-15 0 -8 -6 -12 -13 -9 -18 7 -56 -37 -72 -83 -8 -21 -14 -30 -15 -20 0 30 38
94 70 117 32 23 39 40 16 40 -24 0 -74 -49 -92 -90 -11 -24 -28 -43 -45 -50
-35 -15 -63 -45 -54 -60 3 -6 1 -9 -6 -8 -8 2 -17 -13 -22 -38 -21 -93 62
-183 157 -171 23 3 48 7 56 10 10 4 30 -13 60 -50 25 -30 59 -64 75 -74 31
-19 94 -24 130 -10 15 7 28 1 53 -25 65 -66 159 -96 237 -75 36 9 46 8 89 -14
62 -31 160 -34 221 -6 48 22 121 101 130 140 5 26 11 29 56 33 57 6 92 33 110
85 20 63 -16 135 -79 154 -34 10 -39 15 -50 62 -16 69 -66 117 -120 117 -10 0
-25 12 -33 26 -24 45 -99 105 -123 99 -15 -5 -17 -4 -7 3 16 11 -66 42 -113
42 -43 0 -52 9 -55 55 -2 43 -32 119 -59 148 -20 23 -58 45 -48 28z"/>
</g>
</svg>
