<?xml version="1.0" standalone="no"?>
<!DOCTYPE svg PUBLIC "-//W3C//DTD SVG 20010904//EN"
 "http://www.w3.org/TR/2001/REC-SVG-20010904/DTD/svg10.dtd">
<svg version="1.0" xmlns="http://www.w3.org/2000/svg"
 width="150.000000pt" height="150.000000pt" viewBox="0 0 150.000000 150.000000"
 preserveAspectRatio="xMidYMid meet">
<metadata>
Created by potrace 1.15, written by Peter Selinger 2001-2017
</metadata>
<g transform="translate(0.000000,150.000000) scale(0.100000,-0.100000)"
fill="#000000" stroke="none">
<path d="M578 1236 c-10 -7 -19 -32 -22 -62 -6 -60 -12 -87 -24 -111 -14 -25
-112 -147 -112 -139 0 4 -10 -2 -22 -14 -12 -11 -29 -20 -38 -20 -9 0 -20 -3
-24 -7 -4 -4 -19 -9 -34 -10 -44 -6 -92 -24 -92 -35 0 -6 -7 -8 -15 -4 -28 10
-15 -3 33 -35 26 -18 48 -33 50 -35 11 -8 -31 -63 -52 -68 -33 -8 -83 -68 -96
-116 -35 -130 105 -249 234 -200 23 8 31 4 74 -39 32 -32 65 -54 100 -65 56
-19 152 -23 191 -8 19 7 38 2 84 -22 118 -61 267 -32 351 66 20 23 43 60 52
83 16 42 17 43 71 47 46 4 60 10 89 40 37 37 53 92 40 142 -11 45 -64 95 -107
102 -34 6 -39 10 -39 34 0 85 -71 170 -142 170 -15 0 -30 10 -40 28 -25 43
-101 113 -116 107 -7 -2 -10 0 -7 5 4 6 -15 20 -42 33 -37 17 -70 22 -147 24
l-99 2 -17 38 c-10 21 -28 48 -41 60 -20 18 -27 19 -41 9z m325 -142 c60 -20
57 -28 -3 -10 -114 34 -247 -9 -325 -103 -11 -14 -14 -21 -7 -17 14 8 18 -39
3 -48 -5 -4 -7 4 -5 16 2 13 2 17 -2 11 -3 -7 -10 -13 -15 -13 -6 0 -7 6 -4
13 4 6 -1 3 -9 -7 -9 -11 -16 -24 -16 -29 0 -4 -6 -5 -12 -1 -7 4 -10 4 -6 -1
4 -4 0 -22 -9 -39 -18 -33 -24 -170 -11 -216 5 -14 0 -9 -9 10 -26 52 -23 190
5 252 35 79 135 171 199 183 10 2 18 4 18 5 0 1 13 4 30 6 16 3 32 8 35 11 8
8 89 -5 143 -23z"/>
<path d="M1234 1216 c-17 -8 -34 -21 -37 -30 -4 -9 -13 -16 -21 -16 -9 0 -21
-10 -27 -22 -7 -13 -20 -29 -31 -36 -32 -23 -16 -72 24 -72 10 0 18 -7 18 -15
0 -25 46 -48 82 -41 18 3 50 7 71 9 20 3 45 11 55 19 9 9 22 13 29 11 21 -7
53 17 53 40 0 13 -25 48 -63 88 -68 73 -102 87 -153 65z"/>
</g>
</svg>
