<?xml version="1.0" standalone="no"?>
<!DOCTYPE svg PUBLIC "-//W3C//DTD SVG 20010904//EN"
 "http://www.w3.org/TR/2001/REC-SVG-20010904/DTD/svg10.dtd">
<svg version="1.0" xmlns="http://www.w3.org/2000/svg"
 width="150.000000pt" height="150.000000pt" viewBox="0 0 150.000000 150.000000"
 preserveAspectRatio="xMidYMid meet">
<metadata>
Created by potrace 1.15, written by Peter Selinger 2001-2017
</metadata>
<g transform="translate(0.000000,150.000000) scale(0.100000,-0.100000)"
fill="#000000" stroke="none">
<path d="M674 1426 c-18 -8 -36 -21 -40 -28 -5 -8 -17 -17 -27 -21 -9 -4 -20
-15 -24 -24 -3 -10 -17 -27 -31 -39 -28 -23 -24 -59 8 -69 11 -3 33 -19 49
-36 29 -29 72 -38 99 -21 7 5 26 7 42 4 25 -4 28 -7 19 -23 -5 -10 -18 -19
-29 -19 -11 0 -43 -9 -72 -20 -28 -11 -53 -19 -54 -17 -1 1 -7 12 -13 25 -6
12 -17 22 -23 22 -6 0 -5 -7 3 -17 13 -16 12 -17 -3 -4 -10 7 -15 17 -13 22 8
12 -29 29 -65 29 -41 0 -94 -23 -112 -48 -8 -12 -27 -26 -42 -32 -15 -5 -24
-14 -21 -20 3 -5 1 -10 -4 -10 -6 0 -11 -6 -11 -13 0 -7 -13 -23 -30 -35 -16
-13 -30 -31 -30 -41 0 -21 30 -51 52 -51 9 0 25 -16 37 -36 l21 -35 -25 -37
c-14 -20 -25 -42 -25 -50 0 -7 -15 -21 -33 -32 -19 -11 -43 -39 -55 -64 -25
-48 -27 -110 -4 -101 7 2 10 0 7 -5 -3 -6 -2 -10 4 -10 5 0 12 5 14 10 3 6 4
5 3 -2 -2 -7 -11 -12 -20 -12 -21 2 -20 -2 6 -45 15 -24 17 -32 6 -23 -24 19
-48 76 -48 114 0 18 9 50 20 71 25 46 19 49 -9 3 -29 -46 -28 -127 0 -173 38
-60 126 -89 196 -62 25 9 30 7 55 -23 34 -41 35 -65 3 -80 -47 -21 -41 -98 8
-98 14 -1 30 -13 42 -33 30 -47 69 -63 122 -49 24 7 61 12 82 12 24 0 48 8 66
22 15 11 43 21 62 22 32 1 33 0 14 -13 -12 -7 -21 -19 -21 -26 0 -7 -7 -15
-15 -19 -20 -7 -19 -45 1 -53 9 -3 27 -17 40 -30 21 -21 30 -23 72 -18 26 4
56 13 68 20 11 7 31 15 45 17 41 5 35 38 -20 95 -49 51 -61 57 -107 54 -18 -2
-21 2 -17 23 5 24 10 26 57 26 98 0 193 66 236 163 12 26 25 45 30 42 19 -12
84 9 116 37 79 70 42 214 -61 234 -30 5 -35 10 -35 35 0 70 -48 130 -121 149
-21 6 -41 15 -45 21 -11 18 15 34 50 31 26 -3 38 2 50 20 26 37 19 58 -41 117
-32 31 -66 69 -76 84 -9 15 -23 27 -29 27 -6 0 -3 -10 8 -22 l19 -23 -22 19
c-12 10 -21 23 -20 29 3 13 -60 30 -87 23 -15 -4 -36 12 -90 69 -78 82 -108
95 -162 71z m224 -311 c3 -3 -19 -3 -50 1 -43 5 -70 2 -121 -15 -65 -22 -112
-52 -100 -65 12 -12 -13 -6 -26 7 -8 6 -6 0 3 -14 24 -39 29 -69 9 -62 -11 5
-14 3 -8 -6 6 -10 3 -11 -14 -1 -12 6 -19 16 -15 22 5 7 8 7 13 0 4 -7 12 -8
21 -2 12 8 11 10 -5 10 -15 0 -17 2 -6 9 9 6 10 11 2 15 -6 4 -11 4 -11 -1 0
-4 -14 -23 -31 -40 -16 -18 -27 -33 -23 -33 3 0 1 -6 -6 -14 -20 -25 -39 -115
-34 -164 4 -41 3 -44 -7 -22 -6 14 -9 56 -6 97 11 191 164 317 355 292 30 -4
57 -10 60 -14z"/>
</g>
</svg>
