<?xml version="1.0" standalone="no"?>
<!DOCTYPE svg PUBLIC "-//W3C//DTD SVG 20010904//EN"
 "http://www.w3.org/TR/2001/REC-SVG-20010904/DTD/svg10.dtd">
<svg version="1.0" xmlns="http://www.w3.org/2000/svg"
 width="150.000000pt" height="150.000000pt" viewBox="0 0 150.000000 150.000000"
 preserveAspectRatio="xMidYMid meet">
<metadata>
Created by potrace 1.15, written by Peter Selinger 2001-2017
</metadata>
<g transform="translate(0.000000,150.000000) scale(0.100000,-0.100000)"
fill="#000000" stroke="none">
<path d="M750 1340 c-8 -5 -15 -22 -16 -37 -1 -47 -15 -113 -25 -119 -5 -3 -7
-10 -4 -15 4 -5 1 -9 -5 -9 -6 0 -8 -4 -5 -10 3 -5 1 -10 -5 -10 -6 0 -9 -4
-5 -9 3 -6 -3 -14 -12 -20 -10 -6 -14 -11 -9 -11 14 0 -86 -91 -109 -99 -5 -2
-21 -8 -35 -13 -29 -11 -56 -18 -85 -22 -32 -5 -55 -17 -49 -27 7 -13 -10 -11
-23 2 -11 11 -10 -13 2 -78 3 -18 4 -33 1 -33 -3 0 -10 27 -17 61 -6 33 -20
70 -30 82 l-18 22 -1 -25 c0 -20 -2 -22 -10 -10 -9 13 -15 9 -40 -19 -16 -19
-32 -47 -36 -63 -3 -16 -8 -27 -11 -24 -13 13 31 98 63 123 23 17 31 30 25 36
-16 16 -69 -30 -96 -84 -14 -27 -30 -49 -36 -49 -22 0 -70 -42 -65 -57 3 -8 2
-11 -4 -8 -5 3 -14 -12 -21 -34 -26 -87 46 -181 139 -181 24 0 52 5 63 10 16
9 24 5 51 -27 88 -103 102 -113 157 -113 29 0 61 4 71 10 15 8 21 4 37 -27 16
-34 25 -39 101 -62 69 -22 82 -29 82 -47 0 -12 8 -28 17 -35 11 -9 14 -10 9
-2 -5 9 -2 11 8 7 9 -3 13 -10 10 -15 -3 -5 -1 -9 5 -9 17 0 33 40 27 65 -4
17 -1 24 13 28 26 6 109 -33 116 -56 4 -9 16 -22 28 -28 18 -10 24 -8 42 15
28 35 55 35 55 -2 0 -68 72 -101 78 -35 2 18 -4 43 -13 56 -15 24 -15 25 17
45 38 24 70 64 92 116 14 33 19 36 54 36 72 0 130 73 116 146 -8 42 -52 89
-92 97 -25 5 -30 12 -35 45 -10 62 -45 105 -100 123 -33 11 -54 26 -66 45 -41
68 -115 111 -215 128 l-70 12 -4 45 c-3 51 -48 146 -77 165 -13 9 -25 10 -35
4z"/>
</g>
</svg>
