<?xml version="1.0" standalone="no"?>
<!DOCTYPE svg PUBLIC "-//W3C//DTD SVG 20010904//EN"
 "http://www.w3.org/TR/2001/REC-SVG-20010904/DTD/svg10.dtd">
<svg version="1.0" xmlns="http://www.w3.org/2000/svg"
 width="150.000000pt" height="150.000000pt" viewBox="0 0 150.000000 150.000000"
 preserveAspectRatio="xMidYMid meet">
<metadata>
Created by potrace 1.15, written by Peter Selinger 2001-2017
</metadata>
<g transform="translate(0.000000,150.000000) scale(0.100000,-0.100000)"
fill="#000000" stroke="none">
<path d="M630 1341 c0 -7 -4 -9 -10 -6 -5 3 -10 0 -10 -7 0 -9 -3 -9 -10 2 -7
12 -9 10 -7 -7 0 -12 5 -19 9 -17 4 3 8 2 8 -3 -1 -4 -19 -21 -40 -38 -40 -30
-120 -137 -120 -160 0 -7 -14 -19 -32 -26 -44 -18 -94 -64 -119 -109 -20 -35
-70 -69 -92 -62 -4 1 -7 -5 -7 -13 0 -8 -4 -15 -10 -15 -5 0 -10 5 -10 12 0 6
-3 8 -6 5 -4 -4 -1 -13 5 -21 10 -12 10 -20 -3 -38 -20 -29 -21 -119 -1 -158
34 -65 116 -100 193 -80 43 11 44 10 87 -28 52 -49 85 -68 85 -51 0 17 72 128
86 133 10 4 21 -55 27 -144 2 -23 5 -25 42 -21 22 1 47 6 55 11 8 4 21 5 28 3
7 -3 12 4 12 17 0 21 84 155 112 178 13 10 17 -6 27 -120 7 -73 13 -134 15
-135 2 -2 27 1 56 7 99 19 187 90 211 170 11 36 15 40 46 40 172 0 210 235 45
280 -37 10 -42 14 -42 41 0 70 -58 142 -124 154 -24 5 -42 18 -64 50 -39 55
-97 98 -171 126 -46 17 -71 20 -141 17 -64 -4 -91 -1 -107 10 -16 10 -23 11
-23 3z m245 -37 c33 -8 64 -19 69 -24 5 -5 -13 -2 -40 6 -31 10 -69 14 -102
10 -76 -7 -202 -70 -202 -101 0 -16 29 -47 39 -41 4 3 7 -4 7 -14 0 -10 -6
-16 -13 -13 -7 3 -10 10 -6 17 3 6 -6 0 -20 -13 -15 -14 -27 -21 -27 -17 0 4
-6 4 -12 -1 -7 -4 -15 -8 -18 -8 -52 -4 -77 -134 -47 -245 4 -15 0 -11 -10 10
-16 35 -22 160 -10 205 3 11 6 24 6 28 1 5 6 5 13 1 7 -4 8 -3 4 4 -9 15 22
75 34 67 6 -3 7 0 4 8 -12 31 110 109 197 126 64 13 69 13 134 -5z"/>
</g>
</svg>
