<?xml version="1.0" standalone="no"?>
<!DOCTYPE svg PUBLIC "-//W3C//DTD SVG 20010904//EN"
 "http://www.w3.org/TR/2001/REC-SVG-20010904/DTD/svg10.dtd">
<svg version="1.0" xmlns="http://www.w3.org/2000/svg"
 width="150.000000pt" height="150.000000pt" viewBox="0 0 150.000000 150.000000"
 preserveAspectRatio="xMidYMid meet">
<metadata>
Created by potrace 1.15, written by Peter Selinger 2001-2017
</metadata>
<g transform="translate(0.000000,150.000000) scale(0.100000,-0.100000)"
fill="#000000" stroke="none">
<path d="M755 1340 c-3 -5 -10 -8 -14 -6 -3 3 -7 -12 -8 -32 -3 -120 -58 -220
-160 -291 -18 -12 -33 -20 -33 -16 0 3 -12 -1 -28 -9 -15 -8 -43 -17 -63 -20
-49 -8 -70 -16 -63 -27 8 -13 -10 -11 -25 4 -10 10 -11 9 -7 -3 2 -8 6 -37 9
-65 l5 -50 -13 40 c-8 22 -14 52 -14 66 -1 34 -28 59 -41 39 -5 -8 -12 -11
-16 -7 -10 10 -62 -54 -70 -86 -3 -16 -8 -26 -11 -23 -12 12 21 78 58 115 23
23 35 42 29 46 -18 11 -70 -35 -95 -86 -14 -27 -32 -49 -39 -49 -25 0 -74 -55
-87 -98 -26 -88 45 -182 139 -182 24 0 52 5 63 10 16 9 24 5 51 -27 88 -103
102 -113 157 -113 29 0 60 4 70 10 14 7 23 3 41 -22 15 -21 19 -33 12 -36 -22
-7 -13 -30 9 -25 19 5 21 3 15 -20 -7 -31 10 -37 30 -9 12 16 13 16 19 -1 4
-9 14 -17 22 -17 9 0 13 6 9 15 -4 13 3 14 47 9 29 -3 69 -2 89 4 31 8 43 6
86 -15 28 -14 69 -26 91 -26 44 -2 54 -11 20 -20 -25 -7 -16 -27 12 -27 16 0
19 -5 14 -19 -8 -26 11 -36 24 -14 10 17 12 17 25 -1 19 -24 40 -12 26 15 -9
16 -7 19 15 19 27 0 34 17 10 26 -23 9 -19 18 35 74 28 29 50 55 50 60 0 4 9
10 19 13 14 3 18 11 14 26 -4 16 -1 21 15 21 12 0 24 4 27 10 3 6 14 10 24 10
27 0 72 39 88 77 27 67 -16 152 -85 166 -25 5 -30 12 -35 45 -10 62 -45 105
-100 123 -33 11 -54 26 -66 45 -41 68 -115 111 -215 128 l-70 12 -4 45 c-5 78
-85 205 -107 169z"/>
</g>
</svg>
